#N canvas 6 59 1908 965 10;
#X obj 390 68 adc~ 1;
#N canvas 495 422 450 575 monitor 0;
#X obj 91 88 notein, f 21;
#X floatatom 91 111 5 0 0 0 - - -, f 5;
#X floatatom 152 111 5 0 0 0 - - -, f 5;
#X obj 89 162 ctlin, f 21;
#X floatatom 89 187 5 0 0 0 - - -, f 5;
#X floatatom 150 187 5 0 0 0 - - -, f 5;
#X floatatom 214 111 5 0 0 0 - - -, f 5;
#X floatatom 212 188 5 0 0 0 - - -, f 5;
#X text 88 203 value;
#X text 150 203 ctl;
#X text 211 204 chan;
#X text 151 127 value;
#X text 91 127 ctl;
#X text 213 127 chan;
#X connect 0 0 1 0;
#X connect 0 1 2 0;
#X connect 0 2 6 0;
#X connect 3 0 4 0;
#X connect 3 1 5 0;
#X connect 3 2 7 0;
#X restore 25 152 pd monitor;
#X text 25 135 visualize all relevant data and controls;
#X text 25 65 - get MIDI in \, parse \, and forward to patch instructions
;
#N canvas 183 161 1312 768 get-controls 0;
#X obj 24 18 notein, f 7;
#X obj 65 178 midi-id_to_internal-message;
#X obj 65 146 pack f f;
#X obj 87 18 ctlin, f 8;
#X obj 65 203 s midi-command;
#X connect 0 0 2 0;
#X connect 0 1 2 1;
#X connect 1 0 4 0;
#X connect 2 0 1 0;
#X connect 3 0 2 1;
#X connect 3 1 2 0;
#X restore 25 82 pd get-controls;
#X text 438 61 JB;
#X obj 390 90 REC-b 1 10000;
#X text 1050 60 Sakina;
#X obj 390 254 send~ JB-loop1;
#X obj 390 274 adc~ 1;
#X obj 390 460 send~ JB-loop2;
#X obj 390 296 REC-b 2 10000;
#X obj 390 482 adc~ 1;
#X obj 390 688 adc~ 1;
#X obj 390 504 REC-b 3 10000;
#X obj 390 668 send~ JB-loop3;
#X obj 390 710 REC-b 4 10000;
#X obj 390 874 send~ JB-loop4;
#N canvas 6 59 1908 965 MIX_AND_SEND 1;
#X obj 82 28 receive~ JB-loop1;
#X obj 190 560 dac~ 1 2 3 4, f 30;
#X obj 92 52 receive~ JB-loop2;
#X obj 102 77 receive~ JB-loop3;
#X obj 112 102 receive~ JB-loop4;
#X obj 289 31 receive~ Sakina-loop1;
#X obj 299 55 receive~ Sakina-loop2;
#X obj 309 80 receive~ Sakina-loop3;
#X obj 319 105 receive~ Sakina-loop4;
#X obj 230 150 +~;
#X obj 80 168 +~;
#X obj 95 242 vsl 15 128 0 127 0 0 empty empty empty 0 -9 0 10 #fcfcfc
#000000 #000000 0 1;
#X obj 95 383 / 127;
#X obj 80 420 *~;
#X obj 175 242 vsl 15 128 0 127 0 0 empty empty empty 0 -9 0 10 #fcfcfc
#000000 #000000 0 1;
#X obj 175 383 / 127;
#X obj 160 420 *~;
#X text 95 222 JB;
#X text 120 280 vol.;
#X text 120 305 to;
#X text 120 330 vibs.;
#X text 160 220 Sakina;
#X obj 482 34 ctlin;
#X floatatom 480 90 5 0 0 0 - - -, f 5;
#X floatatom 500 60 5 0 0 0 - - -, f 5;
#X obj 478 165 pack f f;
#X obj 480 114 t b f;
#X obj 480 220 route 13 14 15 16;
#X floatatom 480 245 5 0 0 0 - - -, f 5;
#X floatatom 630 250 5 0 0 0 - - -, f 5;
#X obj 630 225 route 17 18 19 20;
#X connect 0 0 10 0;
#X connect 2 0 10 0;
#X connect 3 0 10 0;
#X connect 4 0 10 0;
#X connect 5 0 9 0;
#X connect 6 0 9 0;
#X connect 7 0 9 0;
#X connect 8 0 9 0;
#X connect 9 0 16 0;
#X connect 9 0 1 3;
#X connect 10 0 13 0;
#X connect 10 0 1 3;
#X connect 11 0 12 0;
#X connect 12 0 13 1;
#X connect 13 0 1 1;
#X connect 14 0 15 0;
#X connect 15 0 16 1;
#X connect 16 0 1 0;
#X connect 22 0 23 0;
#X connect 22 1 24 0;
#X connect 23 0 26 0;
#X connect 24 0 25 0;
#X connect 25 0 27 0;
#X connect 25 0 30 0;
#X connect 26 0 25 0;
#X connect 26 1 25 1;
#X connect 27 0 28 0;
#X connect 27 1 28 0;
#X connect 27 2 28 0;
#X connect 27 3 28 0;
#X connect 27 4 28 0;
#X connect 28 0 11 0;
#X connect 29 0 14 0;
#X connect 30 0 29 0;
#X connect 30 1 29 0;
#X connect 30 2 29 0;
#X connect 30 3 29 0;
#X connect 30 4 29 0;
#X coords 0 -1 1 1 156 174 1 66 205;
#X restore 10 250 pd MIX_AND_SEND;
#X obj 1000 68 adc~ 2;
#X obj 1000 274 adc~ 2;
#X obj 1000 482 adc~ 2;
#X obj 1000 688 adc~ 2;
#X obj 1000 874 send~ Sakina-loop4;
#X obj 1000 668 send~ Sakina-loop3;
#X obj 1000 460 send~ Sakina-loop2;
#X obj 1000 254 send~ Sakina-loop1;
#X obj 1000 90 REC-b 5 10000;
#X obj 1000 296 REC-b 6 10000;
#X obj 1000 504 REC-b 7 10000;
#X obj 1000 710 REC-b 8 10000;
#X obj 247 236 adc~ 1 2;
#X obj 247 261 env~;
#X floatatom 247 286 5 0 0 0 - - -, f 5;
#X obj 292 261 env~;
#X floatatom 292 286 5 0 0 0 - - -, f 5;
#X connect 0 0 6 0;
#X connect 6 0 8 0;
#X connect 9 0 11 0;
#X connect 11 0 10 0;
#X connect 12 0 14 0;
#X connect 13 0 16 0;
#X connect 14 0 15 0;
#X connect 16 0 17 0;
#X connect 19 0 27 0;
#X connect 20 0 28 0;
#X connect 21 0 29 0;
#X connect 22 0 30 0;
#X connect 27 0 26 0;
#X connect 28 0 25 0;
#X connect 29 0 24 0;
#X connect 30 0 23 0;
#X connect 31 0 32 0;
#X connect 31 1 34 0;
#X connect 32 0 33 0;
#X connect 34 0 35 0;
