#N canvas 232 186 1370 710 10;
#X obj 552 545 dac~ 1 2;
#X obj 392 139 adc~ 1;
#N canvas 451 397 450 400 monitor 0;
#X obj 91 88 notein, f 21;
#X floatatom 91 111 5 0 0 0 - - -, f 5;
#X floatatom 152 111 5 0 0 0 - - -, f 5;
#X obj 89 162 ctlin, f 21;
#X floatatom 89 187 5 0 0 0 - - -, f 5;
#X floatatom 150 187 5 0 0 0 - - -, f 5;
#X floatatom 214 111 5 0 0 0 - - -, f 5;
#X floatatom 212 188 5 0 0 0 - - -, f 5;
#X text 88 203 value;
#X text 150 203 ctl;
#X text 211 204 chan;
#X text 151 127 value;
#X text 91 127 ctl;
#X text 213 127 chan;
#X connect 0 0 1 0;
#X connect 0 1 2 0;
#X connect 0 2 6 0;
#X connect 3 0 4 0;
#X connect 3 1 5 0;
#X connect 3 2 7 0;
#X restore 25 152 pd monitor;
#X text 25 135 visualize all relevant data and controls;
#X obj 392 237 REC 1 10000;
#X text 25 65 - get MIDI in \, parse \, and forward to patch instructions
;
#N canvas 157 145 1312 643 get-controls 0;
#X obj 24 18 notein, f 7;
#X obj 65 178 midi-id_to_internal-message;
#X obj 65 146 pack f f;
#X obj 87 18 ctlin, f 8;
#X obj 65 203 s midi-command;
#X connect 0 0 2 0;
#X connect 0 1 2 1;
#X connect 1 0 4 0;
#X connect 2 0 1 0;
#X connect 3 0 2 1;
#X connect 3 1 2 0;
#X restore 25 82 pd get-controls;
#X connect 1 0 4 0;
#X connect 4 0 0 0;
