#N canvas 407 163 1370 685 10;
#X obj 552 545 dac~ 1 2;
#X obj 392 139 adc~ 1;
#N canvas 393 207 450 425 emule-midi 0;
#X obj 82 68 key;
#X obj 82 93 sel 32;
#X obj 82 142 key;
#X text 84 184 o;
#X text 138 183 p;
#X obj 82 167 sel 111 112, f 24;
#X msg 82 206 1;
#X msg 152 207 0;
#X text 92 45 CONTROL;
#X text 126 93 space;
#X obj 82 231 s all-StartPlayback;
#X obj 152 252 s all-StopPlayback;
#X obj 82 118 s all-StartRec;
#X connect 0 0 1 0;
#X connect 1 0 7 0;
#X connect 1 0 12 0;
#X connect 2 0 5 0;
#X connect 5 0 6 0;
#X connect 5 1 7 0;
#X connect 6 0 10 0;
#X connect 7 0 11 0;
#X restore 25 26 pd emule-midi;
#N canvas 650 228 830 618 controls 0;
#X obj 160 138 notein, f 7;
#X obj 201 298 midi-id_to_internal-message;
#X obj 201 266 pack f f;
#X obj 223 138 ctlin, f 8;
#X obj 201 323 s midi-command;
#X connect 0 0 2 0;
#X connect 0 1 2 1;
#X connect 1 0 4 0;
#X connect 2 0 1 0;
#X connect 3 0 2 1;
#X connect 3 1 2 0;
#X restore 25 82 pd controls;
#N canvas 447 399 450 375 monitor 0;
#X obj 91 88 notein, f 21;
#X floatatom 91 111 5 0 0 0 - - -, f 5;
#X floatatom 152 111 5 0 0 0 - - -, f 5;
#X obj 89 162 ctlin, f 21;
#X floatatom 89 187 5 0 0 0 - - -, f 5;
#X floatatom 150 187 5 0 0 0 - - -, f 5;
#X floatatom 214 111 5 0 0 0 - - -, f 5;
#X floatatom 212 188 5 0 0 0 - - -, f 5;
#X text 88 203 value;
#X text 150 203 ctl;
#X text 211 204 chan;
#X text 151 127 value;
#X text 91 127 ctl;
#X text 213 127 chan;
#X connect 0 0 1 0;
#X connect 0 1 2 0;
#X connect 0 2 6 0;
#X connect 3 0 4 0;
#X connect 3 1 5 0;
#X connect 3 2 7 0;
#X restore 25 152 pd monitor;
#X text 25 9 drop some control messages when you don't have a MIDI
device;
#X text 25 65 get MIDI in \, parse \, and forward to patch instructions
;
#X text 25 135 visualize all relevant data and controls;
#X obj 392 237 REC 1 10000;
#X connect 1 0 8 0;
#X connect 8 0 0 0;
