#N canvas 342 203 1370 635 10;
#X obj 552 545 dac~ 1 2;
#X obj 404 105 adc~ 1;
#N canvas 381 213 450 350 emule-midi 0;
#X obj 82 68 key;
#X obj 82 93 sel 32;
#X obj 82 142 key;
#X text 84 184 o;
#X text 138 183 p;
#X obj 82 167 sel 111 112, f 24;
#X msg 82 206 1;
#X msg 152 207 0;
#X text 92 45 CONTROL;
#X text 126 93 space;
#X obj 82 231 s all-StartPlayback;
#X obj 152 252 s all-StopPlayback;
#X obj 82 118 s all-StartRec;
#X connect 0 0 1 0;
#X connect 1 0 7 0;
#X connect 1 0 12 0;
#X connect 2 0 5 0;
#X connect 5 0 6 0;
#X connect 5 1 7 0;
#X connect 6 0 10 0;
#X connect 7 0 11 0;
#X restore 166 42 pd emule-midi;
#N canvas 626 240 830 518 controls 0;
#X obj 160 138 notein, f 7;
#X obj 201 298 midi-id_to_internal-message;
#X obj 201 266 pack f f;
#X obj 223 138 ctlin, f 8;
#X obj 201 323 s midi-command;
#X connect 0 0 2 0;
#X connect 0 1 2 1;
#X connect 1 0 4 0;
#X connect 2 0 1 0;
#X connect 3 0 2 1;
#X connect 3 1 2 0;
#X restore 88 442 pd controls;
#N canvas 739 1106 450 300 monitor 0;
#X obj 91 88 notein, f 9;
#X floatatom 91 113 5 0 0 0 - - -, f 5;
#X floatatom 144 127 5 0 0 0 - - -, f 5;
#X obj 254 66 ctlin, f 21;
#X floatatom 254 91 5 0 0 0 - - -, f 5;
#X floatatom 323 93 5 0 0 0 - - -, f 5;
#X connect 0 0 1 0;
#X connect 0 1 2 0;
#X connect 3 0 4 0;
#X connect 3 1 5 0;
#X restore 90 510 pd monitor;
#X obj 391 234 REC 1 2000;
#X obj 648 260 REC 4 1500;
#X connect 1 0 5 0;
#X connect 1 0 6 0;
#X connect 5 0 0 0;
#X connect 6 0 0 1;
