#N canvas 2 1112 1916 994 10;
#X obj -4 24 cnv 15 140 121 empty empty empty 20 12 0 14 #f2f586 #404040
0;
#X obj 284 10 cnv 15 135 135 empty empty empty 20 12 0 14 #92ffa5 #404040
0;
#X obj 140 10 cnv 15 139 135 empty empty empty 20 12 0 14 #f58686 #404040
0;
#X obj 4 28 tgl 15 0 empty empty empty 17 7 0 10 #fcfcfc #000000 #000000
0 1;
#X obj 1422 94 phasor~;
#X obj 1422 -11 expr $f2/$f1;
#X obj 1247 450 -~ 0.5;
#X obj 1247 472 *~ 0.5;
#X obj 1422 147 *~;
#X obj 1705 534 -~ 0.5;
#X obj 1705 557 *~ 0.5;
#X obj 1599 672 *~;
#X obj 1317 693 *~;
#X obj 1247 494 cos~;
#X obj 1705 580 cos~;
#X msg 1461 69 0;
#X msg -9 591 \; \$0-TAB const 0;
#X obj 1718 -163 tabwrite~ \$0-TAB;
#X obj 1101 581 tabread4~ \$0-TAB;
#X obj 1599 580 tabread4~ \$0-TAB;
#X msg 18 727 \; \$0-TAB resize \$1;
#X obj 18 706 expr $f1/1000*$f2;
#X obj 117 679 r sr;
#X obj 1422 -57 expr $f1/1000*$f2;
#X obj 1521 -82 r sr;
#X obj 1520 806 outlet~;
#X obj 1646 -303 r \$0-StartRec;
#X obj -9 527 r \$0-UPDATE;
#X obj 1422 -82 r \$0-RecLen_ms;
#X obj 1101 537 r \$0-Playback;
#X obj 1599 534 r \$0-Playback;
#X obj 1627 -71 r \$0-Playback;
#X obj 1719 -126 table \$0-TAB;
#X text 21 27 recording...;
#X obj 4 47 tgl 15 0 empty empty empty 17 7 0 10 #fcfcfc #000000 #000000
0 1;
#X text 22 47 playback;
#X obj 1718 -210 inlet~;
#X obj 4 -14 r \$0-Playback;
#X obj -130 -94 r \$0-StartRec;
#X msg -130 -69 1;
#X text 12 -277 1st argument = number of the instance;
#X obj 1437 15 r \$0-Speed;
#X obj 1422 65 * 1;
#X obj 156 54 bng 25 250 50 0 empty empty empty 17 7 0 10 #141f9e #3aa403
#000000;
#X msg 154 247 1;
#X obj 154 272 s \$0-Speed;
#X obj 1438 36 t b f;
#N canvas 496 61 1336 992 parse-controls 0;
#X obj 279 93 f \$1;
#X obj 279 63 loadbang;
#X obj 37 60 r midi-command;
#X obj 37 92 unpack s f;
#X msg 222 193 symbol Chan2-Playback;
#X obj 222 138 t b f;
#X obj 147 252 select symbol;
#X msg 249 162 set symbol Chan\$1-Playback;
#X obj 94 121 sel 0;
#X msg 94 141 0;
#X msg 121 141 1;
#X obj 37 180 spigot;
#X obj 501 140 t b f;
#X msg 528 164 set symbol Chan\$1-Record;
#X msg 501 195 symbol Chan2-Record;
#X obj 426 248 select symbol;
#X text 159 276 bang;
#X obj 147 298 f 0;
#X obj 147 323 + 1;
#X obj 148 349 % 2;
#X obj 148 374 s \$0-Playback;
#X text 172 359 0/1;
#X text 121 15 get all midi controls and compare their name to the
ones that are useful within this instance of REC \, then send the corresponding
command;
#X obj 709 143 t b f;
#X msg 709 198 symbol Chan2-Speed;
#X msg 736 167 set symbol Chan\$1-Speed;
#X obj 714 249 select symbol;
#X obj 846 316 f;
#X obj 914 131 r midi-command;
#X obj 914 163 unpack s f;
#X obj 846 341 / 127;
#X obj 846 366 - 0.5;
#X obj 846 391 * 2;
#X obj 846 458 expr pow(2 \, $f1);
#X text 897 359 from 0:127 (additive);
#X text 897 376 to 0.5:2 (multiplicative);
#X obj 846 503 s \$0-Speed;
#X obj 1095 320 f;
#X obj 1095 345 / 127;
#X obj 1090 161 t b f;
#X msg 1090 216 symbol Chan2-Speed-forwardbackward;
#X obj 1095 267 select symbol;
#X msg 1117 185 set symbol Chan\$1-Speed-forwardbackward;
#X text 823 351 0:1;
#X text 793 380 -0.5:0.5;
#X text 819 405 -1:1;
#X text 1100 361 0:1;
#X text 438 277 bang;
#X obj 426 299 f 0;
#X obj 426 324 + 1;
#X obj 427 350 % 2;
#X text 451 360 0/1;
#X obj 427 384 sel 0 1;
#X obj 446 407 s \$0-StartRec;
#X obj 427 428 s \$0-StopRec;
#X obj 324 449 r \$0-StopRec;
#X obj 297 427 r \$0-StartRec;
#X obj 297 473 timer;
#X text 337 474 get time of loop;
#X obj 297 498 s \$0-RecLen_ms;
#X msg 490 360 0;
#X obj 846 426 * 1;
#X obj 638 463 expr log($f1)/log(2);
#X obj 1095 443 - 2;
#X obj 1095 413 * 4;
#X obj 1110 388 * 2;
#X obj 638 430 + 2;
#X obj 106 579 r midi-command;
#X obj 106 611 unpack s f;
#X obj 245 661 t b f;
#X msg 245 716 symbol Chan2-Smooth-mode;
#X msg 272 685 set symbol Chan\$1-Smooth-mode;
#X obj 170 771 select symbol;
#X text 182 795 bang;
#X obj 170 817 f 0;
#X obj 170 842 + 1;
#X obj 171 868 % 2;
#X text 195 878 0/1;
#X obj 163 663 sel 0;
#X msg 163 683 0;
#X msg 190 683 1;
#X obj 106 722 spigot;
#X obj 228 81 bng 15 250 50 0 empty empty empty 17 7 0 10 #fcfcfc #000000
#000000;
#X obj 171 896 s \$0-Smooth-mode;
#X obj 638 402 r \$0-MaxSpeedFact;
#X obj 534 962 s \$0-Pitch-Shift;
#X obj 534 790 f;
#X obj 609 633 t b f;
#X msg 609 688 symbol Chan2-Pitch-Shift;
#X obj 534 737 select symbol;
#X msg 636 657 set symbol Chan\$1-Pitch-Shift;
#X obj 656 795 r \$0-MaxPitchShift;
#X obj 534 870 maxlib/scale 0 127 0.5 2 1;
#X obj 625 844 expr 1/$f1;
#X obj 656 820 + 2;
#X connect 0 0 5 0;
#X connect 0 0 12 0;
#X connect 0 0 23 0;
#X connect 0 0 39 0;
#X connect 0 0 69 0;
#X connect 0 0 87 0;
#X connect 1 0 0 0;
#X connect 2 0 3 0;
#X connect 3 0 11 0;
#X connect 3 1 8 0;
#X connect 4 0 6 1;
#X connect 5 0 4 0;
#X connect 5 1 7 0;
#X connect 6 0 17 0;
#X connect 7 0 4 0;
#X connect 8 0 9 0;
#X connect 8 1 10 0;
#X connect 9 0 11 1;
#X connect 10 0 11 1;
#X connect 11 0 6 0;
#X connect 11 0 15 0;
#X connect 12 0 14 0;
#X connect 12 1 13 0;
#X connect 13 0 14 0;
#X connect 14 0 15 1;
#X connect 15 0 48 0;
#X connect 17 0 18 0;
#X connect 18 0 17 1;
#X connect 18 0 19 0;
#X connect 19 0 20 0;
#X connect 23 0 24 0;
#X connect 23 1 25 0;
#X connect 24 0 26 1;
#X connect 25 0 24 0;
#X connect 26 0 27 0;
#X connect 27 0 30 0;
#X connect 28 0 29 0;
#X connect 29 0 26 0;
#X connect 29 0 41 0;
#X connect 29 1 27 1;
#X connect 29 1 37 1;
#X connect 30 0 31 0;
#X connect 31 0 32 0;
#X connect 32 0 61 0;
#X connect 33 0 36 0;
#X connect 37 0 38 0;
#X connect 38 0 64 0;
#X connect 39 0 40 0;
#X connect 39 1 42 0;
#X connect 40 0 41 1;
#X connect 41 0 37 0;
#X connect 42 0 40 0;
#X connect 48 0 49 0;
#X connect 49 0 48 1;
#X connect 49 0 50 0;
#X connect 50 0 52 0;
#X connect 52 0 54 0;
#X connect 52 0 60 0;
#X connect 52 1 53 0;
#X connect 55 0 57 1;
#X connect 56 0 57 0;
#X connect 57 0 59 0;
#X connect 60 0 48 1;
#X connect 61 0 33 0;
#X connect 62 0 61 1;
#X connect 63 0 36 0;
#X connect 64 0 63 0;
#X connect 65 0 64 1;
#X connect 66 0 62 0;
#X connect 66 0 63 1;
#X connect 66 0 65 0;
#X connect 67 0 68 0;
#X connect 68 0 81 0;
#X connect 68 0 89 0;
#X connect 68 1 78 0;
#X connect 68 1 86 1;
#X connect 69 0 70 0;
#X connect 69 1 71 0;
#X connect 70 0 72 1;
#X connect 71 0 70 0;
#X connect 72 0 74 0;
#X connect 74 0 75 0;
#X connect 75 0 74 1;
#X connect 75 0 76 0;
#X connect 76 0 83 0;
#X connect 78 0 79 0;
#X connect 78 1 80 0;
#X connect 79 0 81 1;
#X connect 80 0 81 1;
#X connect 81 0 72 0;
#X connect 82 0 0 0;
#X connect 84 0 66 0;
#X connect 86 0 92 0;
#X connect 87 0 88 0;
#X connect 87 1 90 0;
#X connect 88 0 89 1;
#X connect 89 0 86 0;
#X connect 90 0 88 0;
#X connect 91 0 94 0;
#X connect 92 0 85 0;
#X connect 93 0 92 3;
#X connect 94 0 92 4;
#X connect 94 0 93 0;
#X restore 2176 -164 pd parse-controls;
#X text 2079 -194 get formatted controls and keep only the ones that
are relevant for this instance;
#X text 1452 -42 number of points;
#X text 1499 -11 nominal freq of the phasor;
#X text 1252 427 hann;
#X text 1713 513 hann;
#X text 12 -260 2nd argument = maximum recording duration (ms);
#X text 55 643 max. rec. duration (ms);
#X msg -69 -48 0;
#X obj -69 -73 r \$0-StopRec;
#X obj 1738 -303 r \$0-StopRec;
#X msg 1738 -248 stop;
#X msg 18 643 10000;
#X obj 1673 -254 delay 20;
#X msg 1673 -231 start;
#X obj 1646 -278 t b b;
#X obj 1612 -193 s \$0-UPDATE;
#X obj -9 552 t b b;
#X msg 271 592 \; \$0-TAB resize \$1;
#X obj 271 516 r \$0-RecLen_ms;
#X text -52 505 reset table to max length before each recording;
#X text 280 568 just after each recording \, resize to recording size
;
#X obj 271 543 expr $f1/1000*$f2;
#X obj 370 516 r sr;
#X obj -123 48 r \$0-RecLen_ms;
#X floatatom 14 84 14 0 0 0 - - -, f 14;
#X obj 1247 545 *~;
#X obj 2 107 tgl 23 0 empty empty empty 17 7 0 10 #141f9e #3aaa34 #000000
1 1;
#X obj 1705 628 *~;
#X obj 1599 630 *~;
#X obj 1720 601 r \$0-Smooth-mode;
#X obj 1262 518 r \$0-Smooth-mode;
#X obj 78 -57 r \$0-Smooth-mode;
#X obj 1332 593 sig~;
#X obj 1332 540 loadbang;
#X msg 1332 565 1;
#X obj 1332 618 *~;
#X obj 1363 593 expr 1-$f1;
#X obj 1363 570 r \$0-Smooth-mode;
#X text 157 116 2;
#X text 175 116 3;
#X text 191 116 4;
#X text 206 116 5;
#X text 223 116 6;
#X text 239 116 7;
#X text 256 116 8;
#X obj 155 224 s \$0-MaxSpeedFact;
#N canvas 404 195 583 256 controls 0;
#X obj 157 17 vsl 15 128 0 127 0 0 empty empty empty 0 -9 0 10 #fcfcfc
#000000 #000000 0 1;
#X obj 19 170 s \$0-Playback;
#X obj 157 220 s \$0-Speed;
#X obj 50 122 s \$0-StopRec;
#X obj 21 35 s \$0-Smooth-mode;
#X obj 21 11 tgl 15 0 empty empty empty 17 7 0 10 #fcfcfc #000000 #000000
0 1;
#X obj 50 81 bng 15 250 50 0 empty empty empty 17 7 0 10 #fcfcfc #000000
#000000;
#X obj 19 100 s \$0-StartRec;
#X obj 19 81 bng 15 250 50 0 empty empty empty 17 7 0 10 #fcfcfc #000000
#000000;
#X obj 19 149 tgl 15 0 empty empty empty 17 7 0 10 #fcfcfc #000000
#000000 0 1;
#X obj 157 158 - 64;
#X obj 157 183 / 64;
#X floatatom 211 176 5 0 0 0 - - -, f 5;
#X obj 287 18 vsl 15 128 0 127 0 0 empty empty empty 0 -9 0 10 #fcfcfc
#000000 #000000 0 1;
#X obj 287 159 - 64;
#X obj 287 184 / 64;
#X floatatom 341 177 5 0 0 0 - - -, f 5;
#X obj 287 221 s \$0-Pitch-Shift;
#X connect 0 0 10 0;
#X connect 5 0 4 0;
#X connect 6 0 3 0;
#X connect 8 0 7 0;
#X connect 9 0 1 0;
#X connect 10 0 11 0;
#X connect 11 0 2 0;
#X connect 11 0 12 0;
#X connect 13 0 14 0;
#X connect 14 0 15 0;
#X connect 15 0 16 0;
#X connect 15 0 17 0;
#X restore 2102 -235 pd controls;
#X text 2102 -252 drop some control messages when you don't have a
MIDI device;
#X obj 1560 345 +~ 0.5;
#X obj 1560 370 wrap~;
#N canvas 753 413 450 375 init 0;
#X obj 28 36 loadbang;
#X msg 28 61 1;
#X obj 28 86 s \$0-Smooth-mode;
#X obj 165 63 samplerate~;
#X obj 165 83 s sr;
#X obj 165 43 loadbang;
#X obj 151 144 loadbang;
#X obj 151 169 s \$0-UPDATE;
#X obj 45 213 s \$0-window-size;
#X obj 45 159 loadbang;
#X msg 45 184 256;
#X obj 310 157 s \$0-MaxPitch-Shift;
#X obj 310 103 loadbang;
#X msg 310 128 0;
#X obj 288 -19 loadbang;
#X msg 288 6 0;
#X obj 288 35 s \$0-MaxSpeedFact;
#X connect 0 0 1 0;
#X connect 1 0 2 0;
#X connect 3 0 4 0;
#X connect 5 0 3 0;
#X connect 6 0 7 0;
#X connect 9 0 10 0;
#X connect 10 0 8 0;
#X connect 12 0 13 0;
#X connect 13 0 11 0;
#X connect 14 0 15 0;
#X connect 15 0 16 0;
#X restore 2109 -287 pd init;
#X obj 1080 -187 r sr;
#X obj 1062 -129 /;
#X text 1071 -104 window duration (s);
#X floatatom 1062 -80 11 0 0 0 - - -, f 11;
#X obj 1062 -52 expr 1/$f1;
#X text 1079 42 pitch-shifting factor;
#X text 1072 -28 frequency for reading;
#X text 1072 -8 the file without alteration;
#X obj 1080 90 t b f;
#X obj 1062 -214 r \$0-window-size;
#X obj 155 102 hradio 16 0 0 7 empty empty empty 0 -8 0 10 #141f9e
#3aa343 #000000 0;
#X obj 340 266 s \$0-MaxPitchShift;
#X obj 1062 158 phasor~;
#X obj 1575 483 samphold~;
#X obj 1062 461 *~;
#X obj 1077 432 r window-size;
#X obj 1062 520 +~;
#X obj 1077 491 samphold~;
#X text 1364 614 this area just for;
#X text 1364 631 initializing (when no;
#X text 1364 648 mode selected);
#X obj 1560 463 *~;
#X obj 1575 434 r window-size;
#X obj 1560 508 +~;
#X obj 1062 558 unauthorized/spigot~;
#X obj 1560 556 unauthorized/spigot~;
#X obj 1062 117 * 1;
#X obj 1080 -162 t b f;
#X obj 1080 64 r \$0-Pitch-Shift;
#X obj 360 -80 loadbang;
#X msg 360 -55 0;
#X floatatom 338 40 5 0 0 0 - - -, f 5;
#X obj 530 110 r \$0-Pitch-Shift;
#X obj 520 180 r \$0-Speed;
#X floatatom 200 40 5 0 0 0 - - -, f 5;
#X text 232 40 current;
#X text 371 39 current;
#X obj 295 54 bng 25 250 50 0 empty empty empty 17 7 0 10 #141f9e #3aa403
#000000;
#X text 191 12 SPEED;
#X text 150 40 reset;
#X text 290 40 reset;
#X msg 295 305 1;
#X obj 295 330 s \$0-Pitch-Shift;
#X obj 330 101 hradio 18 0 0 3 empty empty empty 0 -8 0 10 #141f9e
#3aa343 #000000 0;
#X text 183 86 max speed;
#X text 320 12 PITCH SHIFT;
#X text 330 119 12;
#X text 368 119 24;
#X text 350 119 18;
#X text 320 86 max (semitone);
#X text 24 111 smooth playback;
#X text 7 68 current length (ms);
#X connect 4 0 8 0;
#X connect 5 0 42 0;
#X connect 6 0 7 0;
#X connect 7 0 13 0;
#X connect 8 0 116 0;
#X connect 8 0 112 0;
#X connect 9 0 10 0;
#X connect 10 0 14 0;
#X connect 11 0 25 0;
#X connect 12 0 25 0;
#X connect 13 0 73 0;
#X connect 14 0 75 0;
#X connect 15 0 4 1;
#X connect 18 0 12 0;
#X connect 19 0 76 0;
#X connect 21 0 20 0;
#X connect 22 0 21 1;
#X connect 23 0 5 0;
#X connect 23 0 8 1;
#X connect 24 0 23 1;
#X connect 24 0 5 1;
#X connect 26 0 62 0;
#X connect 27 0 64 0;
#X connect 28 0 23 0;
#X connect 29 0 123 1;
#X connect 30 0 124 1;
#X connect 31 0 15 0;
#X connect 36 0 17 0;
#X connect 37 0 34 0;
#X connect 38 0 39 0;
#X connect 39 0 3 0;
#X connect 41 0 46 0;
#X connect 42 0 4 0;
#X connect 43 0 44 0;
#X connect 44 0 45 0;
#X connect 46 0 42 0;
#X connect 46 1 42 1;
#X connect 55 0 3 0;
#X connect 56 0 55 0;
#X connect 57 0 58 0;
#X connect 58 0 17 0;
#X connect 59 0 21 0;
#X connect 60 0 61 0;
#X connect 61 0 17 0;
#X connect 62 0 63 0;
#X connect 62 1 60 0;
#X connect 64 0 16 0;
#X connect 64 1 59 0;
#X connect 66 0 69 0;
#X connect 69 0 65 0;
#X connect 70 0 69 1;
#X connect 71 0 72 0;
#X connect 73 0 12 1;
#X connect 75 0 11 1;
#X connect 76 0 11 0;
#X connect 77 0 75 1;
#X connect 77 0 76 1;
#X connect 78 0 73 1;
#X connect 79 0 74 0;
#X connect 80 0 83 0;
#X connect 81 0 82 0;
#X connect 82 0 80 0;
#X connect 83 0 12 1;
#X connect 84 0 83 1;
#X connect 85 0 84 0;
#X connect 96 0 97 0;
#X connect 97 0 9 0;
#X connect 97 0 120 0;
#X connect 97 0 112 1;
#X connect 99 0 126 0;
#X connect 100 0 102 0;
#X connect 102 0 103 0;
#X connect 103 0 125 0;
#X connect 107 0 125 0;
#X connect 107 1 125 1;
#X connect 108 0 100 0;
#X connect 109 0 93 0;
#X connect 111 0 96 0;
#X connect 111 0 6 0;
#X connect 111 0 113 0;
#X connect 111 0 116 1;
#X connect 112 0 122 1;
#X connect 113 0 115 0;
#X connect 114 0 113 1;
#X connect 115 0 123 0;
#X connect 116 0 115 1;
#X connect 120 0 122 0;
#X connect 121 0 120 1;
#X connect 122 0 124 0;
#X connect 123 1 18 0;
#X connect 124 1 19 0;
#X connect 125 0 111 0;
#X connect 126 0 100 0;
#X connect 126 1 100 1;
#X connect 127 0 107 0;
#X connect 128 0 129 0;
#X connect 129 0 109 0;
#X connect 129 0 142 0;
#X connect 131 0 130 0;
#X connect 132 0 133 0;
#X connect 136 0 140 0;
#X connect 140 0 141 0;
#X connect 142 0 110 0;
#X coords 0 -1 1 1 430 143 1 -7 7;
