#N canvas 11 54 1905 972 10;
#X obj 192 82 tgl 15 0 empty empty empty 17 7 0 10 #fcfcfc #000000
#000000 0 1;
#X obj 317 227 samplerate~;
#X obj 317 247 s sr;
#X obj 450 121 phasor~;
#X obj 450 16 expr $f2/$f1;
#X obj 450 170 *~;
#X obj 595 185 -~ 0.5;
#X obj 595 207 *~ 0.5;
#X obj 450 206 spigot~;
#X obj 702 90 phasor~;
#X obj 702 170 *~;
#X obj 847 183 -~ 0.5;
#X obj 847 206 *~ 0.5;
#X obj 702 205 spigot~;
#X obj 741 295 *~;
#X obj 489 294 *~;
#X obj 595 229 cos~;
#X obj 847 229 cos~;
#X msg 741 67 0.5;
#X msg 489 96 0;
#X msg 224 235 \; \$0-TAB const 0;
#X obj 508 -163 tabwrite~ \$0-TAB;
#X obj 489 229 tabread4~ \$0-TAB;
#X obj 741 229 tabread4~ \$0-TAB;
#X msg 166 239 10000;
#X obj 24 47 delay 500;
#X msg 24 72 0;
#X text 60 224 recording duration (ms);
#X msg 166 329 \; \$0-TAB resize \$1;
#X obj 166 308 expr $f1/1000*$f2;
#X obj 265 281 r sr;
#X obj 450 -30 expr $f1/1000*$f2;
#X obj 549 -55 r sr;
#X obj 586 379 outlet~;
#X obj 99 275 s \$0-RecLen_ms;
#X obj 75 21 r \$0-RecLen_ms;
#X obj 436 -273 r \$0-StartRec;
#X obj 318 -77 s \$0-UPDATE;
#X obj 224 211 r \$0-UPDATE;
#X obj 317 207 r \$0-UPDATE;
#X obj 450 -55 r \$0-RecLen_ms;
#X obj 489 185 r \$0-Playback;
#X obj 741 183 r \$0-Playback;
#X obj 655 -44 r \$0-Playback;
#X obj 509 -126 table \$0-TAB;
#X floatatom 167 52 8 0 0 0 - - -, f 8;
#X msg 167 173 set \$1;
#X text 209 81 recording...;
#X obj 192 101 tgl 15 0 empty empty empty 17 7 0 10 #fcfcfc #000000
#000000 0 1;
#X text 210 98 playback;
#X obj 508 -210 inlet~;
#X obj 24 21 sel 1;
#X obj 167 198 t b a;
#X obj 157 -197 r all-StartPlayback;
#X obj 289 -238 r all-StopPlayback;
#X msg 157 -172 1;
#X msg 289 -213 0;
#X obj 166 -224 r \$0-Playback;
#X obj 20 -94 r \$0-StartRec;
#X msg 20 -69 1;
#X text 217 53 rec. duration (ms);
#X obj 273 -123 loadbang, f 11;
#X obj 273 -30 f \$2;
#X text 147 66 ----------------------------;
#X text 12 -277 1st argument = number of the instance;
#X text 12 -260 2nd argument = recording duration (ms);
#X obj 273 -98 t b b, f 8;
#X obj 273 -55 delay 10;
#X msg 436 -248 start;
#X obj 465 42 r \$0-Speed;
#X obj 450 92 * 1;
#X obj 239 14 bng 15 250 50 0 empty empty empty 17 7 0 10 #fcfcfc #000000
#000000;
#X text 256 14 reset speed;
#X msg 355 56 1;
#X obj 355 81 s \$0-Speed;
#X obj 466 63 t b f;
#N canvas 430 102 1336 894 parse-controls 0;
#X obj 279 93 f \$1;
#X obj 279 63 loadbang;
#X obj 37 60 r midi-command;
#X obj 37 92 unpack s f;
#X msg 222 193 symbol Chan1-Playback;
#X obj 222 138 t b f;
#X obj 147 252 select symbol;
#X msg 249 162 set symbol Chan\$1-Playback;
#X obj 94 121 sel 0;
#X msg 94 141 0;
#X msg 121 141 1;
#X obj 37 180 spigot;
#X obj 501 140 t b f;
#X msg 528 164 set symbol Chan\$1-Record;
#X msg 501 195 symbol Chan1-Record;
#X obj 426 248 select symbol;
#X obj 426 273 s \$0-StartRec;
#X text 159 276 bang;
#X text 510 273 bang;
#X obj 147 298 f 0;
#X obj 147 323 + 1;
#X obj 148 349 % 2;
#X obj 148 374 s \$0-Playback;
#X text 172 359 0/1;
#X text 121 15 get all midi controls and compare their name to the
ones that are useful within this instance of REC \, then send the corresponding
command;
#X obj 709 143 t b f;
#X msg 709 198 symbol Chan1-Speed;
#X msg 736 167 set symbol Chan\$1-Speed;
#X obj 714 249 select symbol;
#X obj 846 316 f;
#X obj 914 131 r midi-command;
#X obj 914 163 unpack s f;
#X obj 846 341 / 127;
#X obj 846 366 - 0.5;
#X obj 846 391 * 2;
#X obj 846 418 expr pow(2 \, $f1);
#X text 897 359 from 0:127 (additive);
#X text 897 376 to 0.5:2 (multiplicative);
#X obj 846 503 s \$0-Speed;
#X obj 1128 319 f;
#X obj 1128 344 / 127;
#X obj 1090 161 t b f;
#X msg 1090 216 symbol Chan1-Speed-forwardbackward;
#X obj 1095 267 select symbol;
#X floatatom 964 286 5 0 0 0 - - -, f 5;
#X msg 1117 185 set symbol Chan\$1-Speed-forwardbackward;
#X text 823 351 0:1;
#X text 793 380 -0.5:0.5;
#X text 819 405 -1:1;
#X text 1133 360 0:1;
#X obj 1128 377 * 4;
#X text 1135 394 0:4;
#X obj 1128 412 - 2;
#X text 1135 430 -2:2;
#X connect 0 0 5 0;
#X connect 0 0 12 0;
#X connect 0 0 25 0;
#X connect 0 0 41 0;
#X connect 1 0 0 0;
#X connect 2 0 3 0;
#X connect 3 0 11 0;
#X connect 3 1 8 0;
#X connect 4 0 6 1;
#X connect 5 0 4 0;
#X connect 5 1 7 0;
#X connect 6 0 19 0;
#X connect 7 0 4 0;
#X connect 8 0 9 0;
#X connect 8 1 10 0;
#X connect 9 0 11 1;
#X connect 10 0 11 1;
#X connect 11 0 6 0;
#X connect 11 0 15 0;
#X connect 12 0 14 0;
#X connect 12 1 13 0;
#X connect 13 0 14 0;
#X connect 14 0 15 1;
#X connect 15 0 16 0;
#X connect 19 0 20 0;
#X connect 20 0 19 1;
#X connect 20 0 21 0;
#X connect 21 0 22 0;
#X connect 25 0 26 0;
#X connect 25 1 27 0;
#X connect 26 0 28 1;
#X connect 27 0 26 0;
#X connect 28 0 29 0;
#X connect 29 0 32 0;
#X connect 30 0 31 0;
#X connect 31 0 28 0;
#X connect 31 0 43 0;
#X connect 31 1 29 1;
#X connect 31 1 39 1;
#X connect 31 1 44 0;
#X connect 32 0 33 0;
#X connect 33 0 34 0;
#X connect 34 0 35 0;
#X connect 35 0 38 0;
#X connect 39 0 40 0;
#X connect 40 0 50 0;
#X connect 41 0 42 0;
#X connect 41 1 45 0;
#X connect 42 0 43 1;
#X connect 43 0 39 0;
#X connect 45 0 42 0;
#X connect 50 0 52 0;
#X connect 52 0 38 0;
#X restore 966 -164 pd parse-controls;
#X text 869 -194 get formatted controls and keep only the ones that
are relevant for this instance;
#X text 480 -15 number of points;
#X text 527 16 nominal freq of the phasor;
#X text 600 162 hann;
#X text 855 162 hann;
#X connect 0 0 51 0;
#X connect 1 0 2 0;
#X connect 3 0 5 0;
#X connect 3 0 6 0;
#X connect 4 0 70 0;
#X connect 5 0 8 0;
#X connect 6 0 7 0;
#X connect 7 0 16 0;
#X connect 8 1 22 0;
#X connect 9 0 10 0;
#X connect 9 0 11 0;
#X connect 10 0 13 0;
#X connect 11 0 12 0;
#X connect 12 0 17 0;
#X connect 13 1 23 0;
#X connect 14 0 33 0;
#X connect 15 0 33 0;
#X connect 16 0 15 1;
#X connect 17 0 14 1;
#X connect 18 0 9 1;
#X connect 19 0 3 1;
#X connect 22 0 15 0;
#X connect 23 0 14 0;
#X connect 24 0 29 0;
#X connect 24 0 34 0;
#X connect 25 0 26 0;
#X connect 26 0 0 0;
#X connect 29 0 28 0;
#X connect 30 0 29 1;
#X connect 31 0 4 0;
#X connect 31 0 5 1;
#X connect 31 0 10 1;
#X connect 32 0 31 1;
#X connect 32 0 4 1;
#X connect 35 0 25 1;
#X connect 36 0 68 0;
#X connect 38 0 20 0;
#X connect 38 0 24 0;
#X connect 39 0 1 0;
#X connect 40 0 31 0;
#X connect 41 0 8 1;
#X connect 42 0 13 1;
#X connect 43 0 19 0;
#X connect 43 0 18 0;
#X connect 45 0 46 0;
#X connect 46 0 52 0;
#X connect 50 0 21 0;
#X connect 51 0 25 0;
#X connect 52 0 24 0;
#X connect 52 1 24 0;
#X connect 53 0 55 0;
#X connect 54 0 56 0;
#X connect 55 0 48 0;
#X connect 56 0 48 0;
#X connect 57 0 48 0;
#X connect 58 0 59 0;
#X connect 59 0 0 0;
#X connect 61 0 66 0;
#X connect 62 0 45 0;
#X connect 66 0 67 0;
#X connect 66 1 37 0;
#X connect 67 0 62 0;
#X connect 68 0 21 0;
#X connect 69 0 75 0;
#X connect 70 0 3 0;
#X connect 70 0 9 0;
#X connect 71 0 73 0;
#X connect 73 0 74 0;
#X connect 75 0 70 0;
#X connect 75 1 70 1;
#X coords 0 -1 1 1 190 112 1 147 12;
