#N canvas 346 54 1292 932 10;
#X obj 164 64 tgl 15 0 empty empty empty 17 7 0 10 #fcfcfc #000000
#000000 0 1;
#X obj 212 726 samplerate~;
#X obj 212 746 s sr;
#X obj 450 121 phasor~;
#X obj 450 16 expr $f2/$f1;
#X obj 450 170 *~;
#X obj 595 185 -~ 0.5;
#X obj 595 207 *~ 0.5;
#X obj 450 206 spigot~;
#X obj 702 90 phasor~;
#X obj 702 170 *~;
#X obj 847 183 -~ 0.5;
#X obj 847 206 *~ 0.5;
#X obj 702 205 spigot~;
#X obj 741 334 *~;
#X obj 489 470 *~;
#X obj 595 229 cos~;
#X obj 847 229 cos~;
#X msg 489 96 0;
#X msg 75 735 \; \$0-TAB const 0;
#X obj 508 -163 tabwrite~ \$0-TAB;
#X obj 489 229 tabread4~ \$0-TAB;
#X obj 741 229 tabread4~ \$0-TAB;
#X msg 17 829 \; \$0-TAB resize \$1;
#X obj 17 808 expr $f1/1000*$f2;
#X obj 116 781 r sr;
#X obj 450 -30 expr $f1/1000*$f2;
#X obj 549 -55 r sr;
#X obj 586 499 outlet~;
#X obj 436 -303 r \$0-StartRec;
#X obj 63 579 s \$0-UPDATE;
#X obj 75 671 r \$0-UPDATE;
#X obj 450 -55 r \$0-RecLen_ms;
#X obj 489 185 r \$0-Playback;
#X obj 741 183 r \$0-Playback;
#X obj 655 -44 r \$0-Playback;
#X obj 509 -126 table \$0-TAB;
#X text 181 63 recording...;
#X obj 164 83 tgl 15 0 empty empty empty 17 7 0 10 #fcfcfc #000000
#000000 0 1;
#X text 182 83 playback;
#X obj 508 -210 inlet~;
#X obj 157 -197 r all-StartPlayback;
#X obj 289 -238 r all-StopPlayback;
#X msg 157 -172 1;
#X msg 289 -213 0;
#X obj 166 -224 r \$0-Playback;
#X obj 20 -94 r \$0-StartRec;
#X msg 20 -69 1;
#X obj 18 533 loadbang, f 11;
#X text 12 -277 1st argument = number of the instance;
#X obj 18 558 t b b, f 8;
#X obj 18 601 delay 10;
#X obj 465 42 r \$0-Speed;
#X obj 450 92 * 1;
#X obj 303 14 bng 25 250 50 0 empty empty empty 17 7 0 10 #141f9e #3aa403
#000000;
#X text 334 15 reset speed;
#X msg 301 247 1;
#X obj 301 272 s \$0-Speed;
#X obj 466 63 t b f;
#N canvas 478 76 1336 944 parse-controls 0;
#X obj 279 93 f \$1;
#X obj 279 63 loadbang;
#X obj 37 60 r midi-command;
#X obj 37 92 unpack s f;
#X msg 222 193 symbol Chan1-Playback;
#X obj 222 138 t b f;
#X obj 147 252 select symbol;
#X msg 249 162 set symbol Chan\$1-Playback;
#X obj 94 121 sel 0;
#X msg 94 141 0;
#X msg 121 141 1;
#X obj 37 180 spigot;
#X obj 501 140 t b f;
#X msg 528 164 set symbol Chan\$1-Record;
#X msg 501 195 symbol Chan1-Record;
#X obj 426 248 select symbol;
#X text 159 276 bang;
#X obj 147 298 f 0;
#X obj 147 323 + 1;
#X obj 148 349 % 2;
#X obj 148 374 s \$0-Playback;
#X text 172 359 0/1;
#X text 121 15 get all midi controls and compare their name to the
ones that are useful within this instance of REC \, then send the corresponding
command;
#X obj 709 143 t b f;
#X msg 709 198 symbol Chan1-Speed;
#X msg 736 167 set symbol Chan\$1-Speed;
#X obj 714 249 select symbol;
#X obj 846 316 f;
#X obj 914 131 r midi-command;
#X obj 914 163 unpack s f;
#X obj 846 341 / 127;
#X obj 846 366 - 0.5;
#X obj 846 391 * 2;
#X obj 846 458 expr pow(2 \, $f1);
#X text 897 359 from 0:127 (additive);
#X text 897 376 to 0.5:2 (multiplicative);
#X obj 846 503 s \$0-Speed;
#X obj 1095 320 f;
#X obj 1095 345 / 127;
#X obj 1090 161 t b f;
#X msg 1090 216 symbol Chan1-Speed-forwardbackward;
#X obj 1095 267 select symbol;
#X msg 1117 185 set symbol Chan\$1-Speed-forwardbackward;
#X text 823 351 0:1;
#X text 793 380 -0.5:0.5;
#X text 819 405 -1:1;
#X text 1100 361 0:1;
#X text 438 277 bang;
#X obj 426 299 f 0;
#X obj 426 324 + 1;
#X obj 427 350 % 2;
#X text 451 360 0/1;
#X obj 427 384 sel 0 1;
#X obj 446 407 s \$0-StartRec;
#X obj 427 428 s \$0-StopRec;
#X obj 324 449 r \$0-StopRec;
#X obj 297 427 r \$0-StartRec;
#X obj 297 473 timer;
#X text 337 474 get time of loop;
#X obj 297 498 s \$0-RecLen_ms;
#X msg 490 360 0;
#X obj 846 426 * 1;
#X obj 638 463 expr log($f1)/log(2);
#X floatatom 812 515 5 0 0 0 - - -, f 5;
#X floatatom 1098 495 5 0 0 0 - - -, f 5;
#X obj 1095 443 - 2;
#X obj 1095 413 * 4;
#X obj 1110 388 * 2;
#X obj 638 430 + 2;
#X obj 106 579 r midi-command;
#X obj 106 611 unpack s f;
#X obj 245 661 t b f;
#X msg 245 716 symbol Chan1-Smooth-mode;
#X msg 272 685 set symbol Chan\$1-Smooth-mode;
#X obj 170 771 select symbol;
#X text 182 795 bang;
#X obj 170 817 f 0;
#X obj 170 842 + 1;
#X obj 171 868 % 2;
#X text 195 878 0/1;
#X obj 163 663 sel 0;
#X msg 163 683 0;
#X msg 190 683 1;
#X obj 106 722 spigot;
#X obj 228 81 bng 15 250 50 0 empty empty empty 17 7 0 10 #fcfcfc #000000
#000000;
#X obj 171 896 s \$0-Smooth-mode;
#X obj 638 402 r \$0-MaxSpeedFact;
#X connect 0 0 5 0;
#X connect 0 0 12 0;
#X connect 0 0 23 0;
#X connect 0 0 39 0;
#X connect 0 0 71 0;
#X connect 1 0 0 0;
#X connect 2 0 3 0;
#X connect 3 0 11 0;
#X connect 3 1 8 0;
#X connect 4 0 6 1;
#X connect 5 0 4 0;
#X connect 5 1 7 0;
#X connect 6 0 17 0;
#X connect 7 0 4 0;
#X connect 8 0 9 0;
#X connect 8 1 10 0;
#X connect 9 0 11 1;
#X connect 10 0 11 1;
#X connect 11 0 6 0;
#X connect 11 0 15 0;
#X connect 12 0 14 0;
#X connect 12 1 13 0;
#X connect 13 0 14 0;
#X connect 14 0 15 1;
#X connect 15 0 48 0;
#X connect 17 0 18 0;
#X connect 18 0 17 1;
#X connect 18 0 19 0;
#X connect 19 0 20 0;
#X connect 23 0 24 0;
#X connect 23 1 25 0;
#X connect 24 0 26 1;
#X connect 25 0 24 0;
#X connect 26 0 27 0;
#X connect 27 0 30 0;
#X connect 28 0 29 0;
#X connect 29 0 26 0;
#X connect 29 0 41 0;
#X connect 29 1 27 1;
#X connect 29 1 37 1;
#X connect 30 0 31 0;
#X connect 31 0 32 0;
#X connect 32 0 61 0;
#X connect 33 0 36 0;
#X connect 33 0 63 0;
#X connect 37 0 38 0;
#X connect 38 0 66 0;
#X connect 39 0 40 0;
#X connect 39 1 42 0;
#X connect 40 0 41 1;
#X connect 41 0 37 0;
#X connect 42 0 40 0;
#X connect 48 0 49 0;
#X connect 49 0 48 1;
#X connect 49 0 50 0;
#X connect 50 0 52 0;
#X connect 52 0 54 0;
#X connect 52 0 60 0;
#X connect 52 1 53 0;
#X connect 55 0 57 1;
#X connect 56 0 57 0;
#X connect 57 0 59 0;
#X connect 60 0 48 1;
#X connect 61 0 33 0;
#X connect 62 0 61 1;
#X connect 65 0 36 0;
#X connect 65 0 64 0;
#X connect 66 0 65 0;
#X connect 67 0 66 1;
#X connect 68 0 62 0;
#X connect 68 0 65 1;
#X connect 68 0 67 0;
#X connect 69 0 70 0;
#X connect 70 0 83 0;
#X connect 70 1 80 0;
#X connect 71 0 72 0;
#X connect 71 1 73 0;
#X connect 72 0 74 1;
#X connect 73 0 72 0;
#X connect 74 0 76 0;
#X connect 76 0 77 0;
#X connect 77 0 76 1;
#X connect 77 0 78 0;
#X connect 78 0 85 0;
#X connect 80 0 81 0;
#X connect 80 1 82 0;
#X connect 81 0 83 1;
#X connect 82 0 83 1;
#X connect 83 0 74 0;
#X connect 84 0 0 0;
#X connect 86 0 68 0;
#X restore 966 -164 pd parse-controls;
#X text 869 -194 get formatted controls and keep only the ones that
are relevant for this instance;
#X text 480 -15 number of points;
#X text 527 16 nominal freq of the phasor;
#X text 600 162 hann;
#X text 855 162 hann;
#X text 12 -260 2nd argument = maximum recording duration (ms);
#X text 55 643 max. rec. duration (ms);
#X msg 81 -48 0;
#X obj 81 -73 r \$0-StopRec;
#X obj 528 -303 r \$0-StopRec;
#X msg 528 -248 stop;
#X msg 18 643 10000;
#X obj 463 -254 delay 20;
#X msg 463 -231 start;
#X obj 436 -278 t b b;
#X obj 402 -193 s \$0-UPDATE;
#X obj 75 696 t b b;
#X obj 212 706 loadbang;
#X msg 271 592 \; \$0-TAB resize \$1;
#X obj 271 516 r \$0-RecLen_ms;
#X text 145 671 reset table to max length before each recording;
#X text 280 568 just after each recording \, resize to recording size
;
#X obj 271 543 expr $f1/1000*$f2;
#X obj 370 516 r sr;
#X obj 27 48 r \$0-RecLen_ms;
#X floatatom 153 133 14 0 0 0 - - -, f 14;
#X msg 741 67 0.5;
#X obj 595 280 *~;
#X obj 308 116 tgl 23 0 empty empty empty 17 7 0 10 #141f9e #3aaa34
#000000 1 1;
#X obj 847 277 *~;
#X obj 741 279 *~;
#X obj 980 -51 loadbang;
#X msg 980 -26 1;
#X obj 862 250 r \$0-Smooth-mode;
#X obj 610 253 r \$0-Smooth-mode;
#X obj 980 -1 s \$0-Smooth-mode;
#X obj 308 -17 r \$0-Smooth-mode;
#X obj 504 370 sig~;
#X obj 504 317 loadbang;
#X msg 504 342 1;
#X obj 504 395 *~;
#X obj 535 370 expr 1-$f1;
#X obj 535 347 r \$0-Smooth-mode;
#X obj 368 66 vradio 17 0 0 7 empty empty empty 0 -8 0 10 #141f9e #3aa343
#000000 0;
#X text 386 66 2;
#X text 386 83 3;
#X text 386 100 4;
#X text 386 117 5;
#X text 386 134 6;
#X text 386 151 7;
#X text 386 168 8;
#X obj 368 266 s \$0-MaxSpeedFact;
#X text 302 187 max speed factor;
#X text 285 95 smooth mode;
#X text 154 150 length of;
#X text 154 167 current loop (ms);
#X connect 1 0 2 0;
#X connect 3 0 5 0;
#X connect 3 0 6 0;
#X connect 4 0 53 0;
#X connect 5 0 8 0;
#X connect 6 0 7 0;
#X connect 7 0 16 0;
#X connect 8 1 21 0;
#X connect 9 0 10 0;
#X connect 9 0 11 0;
#X connect 10 0 13 0;
#X connect 11 0 12 0;
#X connect 12 0 17 0;
#X connect 13 1 22 0;
#X connect 14 0 28 0;
#X connect 15 0 28 0;
#X connect 16 0 87 0;
#X connect 17 0 89 0;
#X connect 18 0 3 1;
#X connect 21 0 15 0;
#X connect 22 0 90 0;
#X connect 24 0 23 0;
#X connect 25 0 24 1;
#X connect 26 0 4 0;
#X connect 26 0 5 1;
#X connect 26 0 10 1;
#X connect 27 0 26 1;
#X connect 27 0 4 1;
#X connect 29 0 74 0;
#X connect 31 0 76 0;
#X connect 32 0 26 0;
#X connect 33 0 8 1;
#X connect 34 0 13 1;
#X connect 35 0 18 0;
#X connect 35 0 86 0;
#X connect 40 0 20 0;
#X connect 41 0 43 0;
#X connect 42 0 44 0;
#X connect 43 0 38 0;
#X connect 44 0 38 0;
#X connect 45 0 38 0;
#X connect 46 0 47 0;
#X connect 47 0 0 0;
#X connect 48 0 50 0;
#X connect 50 0 51 0;
#X connect 50 1 30 0;
#X connect 51 0 71 0;
#X connect 52 0 58 0;
#X connect 53 0 3 0;
#X connect 53 0 9 0;
#X connect 54 0 56 0;
#X connect 56 0 57 0;
#X connect 58 0 53 0;
#X connect 58 1 53 1;
#X connect 67 0 0 0;
#X connect 68 0 67 0;
#X connect 69 0 70 0;
#X connect 70 0 20 0;
#X connect 71 0 24 0;
#X connect 72 0 73 0;
#X connect 73 0 20 0;
#X connect 74 0 75 0;
#X connect 74 1 72 0;
#X connect 76 0 19 0;
#X connect 76 1 71 0;
#X connect 77 0 1 0;
#X connect 79 0 82 0;
#X connect 82 0 78 0;
#X connect 83 0 82 1;
#X connect 84 0 85 0;
#X connect 86 0 9 1;
#X connect 87 0 15 1;
#X connect 89 0 14 1;
#X connect 90 0 14 0;
#X connect 91 0 92 0;
#X connect 92 0 95 0;
#X connect 93 0 89 1;
#X connect 93 0 90 1;
#X connect 94 0 87 1;
#X connect 96 0 88 0;
#X connect 97 0 100 0;
#X connect 98 0 99 0;
#X connect 99 0 97 0;
#X connect 100 0 15 1;
#X connect 101 0 100 1;
#X connect 102 0 101 0;
#X connect 103 0 111 0;
#X coords 0 -1 1 1 259 196 1 147 12;
