#N canvas 631 181 791 845 12;
#N canvas 0 0 450 300 (subpatch) 0;
#X array array1 178329 float 2 black black;
#X coords 0 1 178329 -1 200 140 1;
#X restore 291 29 graph;
#X obj 290 220 soundfiler;
#X floatatom 290 246 6 0 0 0 - - -, f 6;
#X obj 290 329 *~;
#X obj 290 303 phasor~;
#X obj 47 370 phasor~;
#X floatatom 47 345 5 0 0 0 - - -, f 5;
#X obj 47 512 *~ 256;
#X obj 290 507 samphold~;
#X obj 47 628 tabread4~ array1;
#X obj 47 593 +~;
#X obj 47 672 dac~;
#X text 579 190 load sound file;
#X text 342 246 size of sound file;
#X text 357 303 runs at original speed;
#X text 45 325 playback speed you want;
#X text 105 502 window \, here 256;
#X text 104 519 samples in size;
#X text 33 26 3.7.1.1. Granular Theory 2;
#X text 484 713 www.pd-tutorial.com;
#X text 493 681 Johannes Kreidler;
#X msg 290 190 read -resize ../snd/fantasy2.wav array1;
#X obj 290 272 expr 48000 / $f1;
#X connect 1 0 2 0;
#X connect 2 0 3 1;
#X connect 2 0 22 0;
#X connect 3 0 8 0;
#X connect 4 0 3 0;
#X connect 5 0 7 0;
#X connect 5 0 8 1;
#X connect 6 0 5 0;
#X connect 7 0 10 0;
#X connect 8 0 10 1;
#X connect 9 0 11 0;
#X connect 9 0 11 1;
#X connect 10 0 9 0;
#X connect 21 0 1 0;
#X connect 22 0 4 0;
