#N canvas 457 241 723 477 12;
#N canvas 0 0 450 300 (subpatch) 0;
#X array array1 178329 float 0 black black;
#X coords 0 1 178328 -1 200 140 1;
#X restore 291 29 graph;
#X obj 290 220 soundfiler;
#X floatatom 290 246 7 0 0 0 - - -, f 7;
#X obj 290 329 *~;
#X obj 290 303 phasor~;
#X obj 291 359 tabread4~ array1;
#X obj 291 403 dac~;
#X text 33 27 3.7.1.1. Granular Theory 1;
#X text 537 192 load sound file;
#X text 342 246 size of sound file;
#X text 336 440 www.pd-tutorial.com;
#X text 359 415 Johannes Kreidler;
#X msg 290 190 read -resize ../snd/fantasy2.wav array1;
#X obj 290 272 expr 48000 / $f1;
#X connect 1 0 2 0;
#X connect 2 0 3 1;
#X connect 2 0 13 0;
#X connect 3 0 5 0;
#X connect 4 0 3 0;
#X connect 5 0 6 0;
#X connect 5 0 6 1;
#X connect 12 0 1 0;
#X connect 13 0 4 0;
