#N canvas 533 200 548 490 10;
#X obj 179 47 noise~;
#X obj 179 145 *~;
#X obj 179 210 +~;
#X obj 179 375 osc~;
#X obj 179 505 *~;
#X obj 179 530 dac~ 1;
#X text 149 70 -1:1;
#X obj 179 92 abs~;
#X text 153 119 0:1;
#X floatatom 235 111 5 0 0 0 - - -, f 5;
#X floatatom 240 173 5 0 0 0 - - -, f 5;
#X text 276 112 width;
#X text 133 169 0:width;
#X text 274 172 offset;
#X text 57 230 offset:offset+width;
#X obj 208 417 vsl 10 60 0 1 0 0 empty empty empty 0 -9 0 10 -262144
-1 -1 5200 1;
#X obj 230 247 phasor~;
#X obj 179 323 samphold~;
#X floatatom 248 208 5 0 0 0 - - -, f 5;
#X text 238 311 sample the random values;
#X obj 385 332 samphold~;
#X text 444 320 sample the random values;
#X obj 385 357 osc~;
#X obj 400 272 +~ 0.5;
#X obj 400 297 wrap~;
#X obj 259 462 /~ 2;
#X connect 0 0 7 0;
#X connect 1 0 2 0;
#X connect 2 0 17 0;
#X connect 2 0 20 0;
#X connect 3 0 25 0;
#X connect 4 0 5 0;
#X connect 7 0 1 0;
#X connect 9 0 1 1;
#X connect 10 0 2 1;
#X connect 15 0 4 1;
#X connect 16 0 17 1;
#X connect 16 0 23 0;
#X connect 17 0 3 0;
#X connect 18 0 16 0;
#X connect 20 0 22 0;
#X connect 22 0 25 0;
#X connect 23 0 24 0;
#X connect 24 0 20 1;
#X connect 25 0 4 0;
