#N canvas 63 54 1853 972 12;
#X obj 137 -12 soundfiler;
#X floatatom 137 17 9 0 0 0 - - -, f 9;
#X obj 137 75 expr $f2/$f1;
#X obj 519 64 samplerate~;
#X obj 519 93 s sr;
#X obj 519 15 loadbang;
#X obj 218 45 r sr;
#X floatatom 137 104 5 0 0 0 - - -, f 5;
#X obj 137 272 phasor~;
#X obj 137 45 t f f;
#X obj 137 301 *~;
#N canvas 0 0 450 300 (subpatch) 0;
#X array array1 178329 float 0 black black;
#X coords 0 1 178328 -1 200 140 1;
#X restore 488 140 graph;
#X obj 585 30 bng 15 250 50 0 empty empty empty 17 7 0 10 #fcfcfc #000000
#000000;
#X text 66 16 # samples;
#X msg 137 -58 read -resize ../snd/fantasy2.wav array1;
#X obj -28 359 phasor~;
#X obj -28 548 *~;
#X floatatom 642 69 5 0 0 0 - - -, f 5;
#X obj 642 97 s window-size;
#X obj -10 519 r window-size;
#X obj -28 607 +~;
#X obj -10 578 samphold~;
#X obj -232 -98 r window-size;
#X obj -214 -71 r sr;
#X obj -232 -43 /;
#X text -223 -18 window duration (s);
#X floatatom -232 6 11 0 0 0 - - -, f 11;
#X obj -232 34 expr 1/$f1;
#X obj -232 203 *;
#X floatatom -214 148 5 0 0 0 - - -, f 5;
#X text -215 128 pitch-shifting factor;
#X text -222 58 frequency for reading;
#X text -222 78 the file without alteration;
#X obj -214 176 t b f;
#X obj -125 582 -~ 0.5;
#X obj -125 604 *~ 0.5;
#X obj -125 626 cos~;
#X obj 303 548 *~;
#X obj 321 519 r window-size;
#X obj 303 607 +~;
#X obj 321 578 samphold~;
#X obj 207 582 -~ 0.5;
#X obj 207 604 *~ 0.5;
#X obj 207 626 cos~;
#X obj 285 683 *~;
#X obj 104 757 +~;
#X obj 207 451 wrap~;
#X obj 207 422 +~ 0.5;
#X obj 104 786 *~ 0.5;
#X obj -46 683 *~;
#X msg -165 149 1;
#X msg 701 65 256;
#X obj -28 644 tabread4~ array1;
#X obj 303 644 tabread4~ array1;
#X obj 137 235 *;
#X floatatom 192 156 5 0 0 0 - - -, f 5;
#X obj 192 184 t b f;
#X text 234 151 time-stretch factor;
#X obj 104 822 dac~ 1 2;
#X connect 0 0 1 0;
#X connect 1 0 9 0;
#X connect 2 0 7 0;
#X connect 3 0 4 0;
#X connect 5 0 3 0;
#X connect 5 0 51 0;
#X connect 6 0 2 1;
#X connect 7 0 54 0;
#X connect 7 0 8 0;
#X connect 8 0 10 0;
#X connect 9 0 2 0;
#X connect 9 1 10 1;
#X connect 10 0 21 0;
#X connect 10 0 40 0;
#X connect 12 0 3 0;
#X connect 14 0 0 0;
#X connect 15 0 16 0;
#X connect 15 0 21 1;
#X connect 15 0 47 0;
#X connect 15 0 34 0;
#X connect 16 0 20 0;
#X connect 17 0 18 0;
#X connect 19 0 16 1;
#X connect 20 0 52 0;
#X connect 21 0 20 1;
#X connect 22 0 24 0;
#X connect 23 0 24 1;
#X connect 24 0 26 0;
#X connect 26 0 27 0;
#X connect 27 0 28 0;
#X connect 28 0 15 0;
#X connect 29 0 33 0;
#X connect 33 0 28 0;
#X connect 33 1 28 1;
#X connect 34 0 35 0;
#X connect 35 0 36 0;
#X connect 36 0 49 1;
#X connect 37 0 39 0;
#X connect 38 0 37 1;
#X connect 39 0 53 0;
#X connect 40 0 39 1;
#X connect 41 0 42 0;
#X connect 42 0 43 0;
#X connect 43 0 44 1;
#X connect 44 0 45 1;
#X connect 45 0 48 0;
#X connect 46 0 40 1;
#X connect 46 0 41 0;
#X connect 46 0 37 0;
#X connect 47 0 46 0;
#X connect 48 0 58 0;
#X connect 48 0 58 1;
#X connect 49 0 45 0;
#X connect 50 0 33 0;
#X connect 51 0 18 0;
#X connect 52 0 49 0;
#X connect 53 0 44 0;
#X connect 54 0 8 0;
#X connect 55 0 56 0;
#X connect 56 0 54 0;
#X connect 56 1 54 1;
