#N canvas 747 401 696 463 12;
#X obj 137 68 soundfiler;
#X floatatom 137 97 9 0 0 0 - - -, f 9;
#X obj 137 155 expr $f2/$f1;
#X obj 519 64 samplerate~;
#X obj 519 93 s sr;
#X obj 519 15 loadbang;
#X obj 246 85 r sr;
#X floatatom 137 184 5 0 0 0 - - -, f 5;
#X obj 137 212 phasor~;
#X obj 137 125 t f f;
#X obj 137 241 *~;
#N canvas 0 0 450 300 (subpatch) 0;
#X array array1 178329 float 0 black black;
#X coords 0 1 178328 -1 200 140 1;
#X restore 405 171 graph;
#X obj 137 270 tabread4~ array1;
#X obj 137 343 dac~;
#X obj 585 30 bng 15 250 50 0 empty empty empty 17 7 0 10 #fcfcfc #000000
#000000;
#X floatatom 563 94 5 0 0 0 - - -, f 5;
#X text 66 96 # samples;
#X msg 137 22 read -resize ../snd/fantasy2.wav array1;
#X connect 0 0 1 0;
#X connect 1 0 9 0;
#X connect 2 0 7 0;
#X connect 3 0 4 0;
#X connect 3 0 15 0;
#X connect 5 0 3 0;
#X connect 6 0 2 1;
#X connect 7 0 8 0;
#X connect 8 0 10 0;
#X connect 9 0 2 0;
#X connect 9 1 10 1;
#X connect 10 0 12 0;
#X connect 12 0 13 0;
#X connect 14 0 3 0;
#X connect 17 0 0 0;
