#N canvas 505 276 638 300 10;
#X obj 324 116 samplerate~;
#X obj 324 159 osc~;
#X obj 324 179 *~ -0.5;
#X obj 324 203 +~ 0.5;
#X obj 324 137 /;
#X msg 357 139 0;
#X obj 360 30 inlet;
#X obj 323 234 tabwrite~ window;
#X msg 436 91 \; window resize \$1;
#X obj 353 61 t b b b f f;
#X floatatom 234 108 5 0 0 0 - - -, f 5;
#X connect 0 0 4 0;
#X connect 1 0 2 0;
#X connect 2 0 3 0;
#X connect 3 0 7 0;
#X connect 4 0 1 0;
#X connect 5 0 1 1;
#X connect 6 0 9 0;
#X connect 6 0 10 0;
#X connect 9 0 7 0;
#X connect 9 1 0 0;
#X connect 9 2 5 0;
#X connect 9 3 4 1;
#X connect 9 4 8 0;
