#N canvas 409 241 1370 635 10;
#X obj 133 161 key;
#X obj 133 186 sel 32;
#X obj 133 211 s StartRec;
#X obj 133 235 key;
#X text 135 277 o;
#X text 189 276 p;
#X obj 133 260 sel 111 112, f 24;
#X msg 133 299 1;
#X msg 203 300 0;
#X text 143 138 CONTROL;
#X obj 552 545 dac~ 1 2;
#X obj 404 105 adc~ 1;
#X obj 727 101 key;
#X obj 727 151 s StartRec;
#X obj 727 175 key;
#X msg 727 239 1;
#X msg 797 240 0;
#X text 737 78 CONTROL;
#X obj 727 200 sel 107 108, f 24;
#X text 729 217 k;
#X text 783 216 l;
#X text 769 124 enter;
#X obj 726 127 sel 10;
#X text 177 186 space;
#X obj 921 239 REC;
#X obj 353 157 env~;
#X floatatom 353 182 5 0 0 0 - - -, f 5;
#N canvas 743 726 450 350 emule-midi 0;
#X restore 166 42 pd emule-midi;
#N canvas 362 227 830 418 controls 1;
#X obj 160 138 notein, f 9;
#X floatatom 160 163 5 0 0 0 - - -, f 5;
#X obj 446 255 midi-id_to_internal-message;
#X floatatom 213 177 5 0 0 0 - - -, f 5;
#X obj 201 266 pack f f;
#X obj 148 35 ctlin, f 12;
#X floatatom 148 60 5 0 0 0 - - -, f 5;
#X floatatom 217 62 5 0 0 0 - - -, f 5;
#X obj 446 280 s midi-command;
#X connect 0 0 1 0;
#X connect 0 0 4 0;
#X connect 0 1 3 0;
#X connect 0 1 4 1;
#X connect 2 0 8 0;
#X connect 4 0 2 0;
#X connect 5 0 6 0;
#X connect 5 1 7 0;
#X restore 88 442 pd controls;
#N canvas 739 1106 450 300 monitor 0;
#X obj 91 88 notein, f 9;
#X floatatom 91 113 5 0 0 0 - - -, f 5;
#X floatatom 144 127 5 0 0 0 - - -, f 5;
#X obj 254 66 ctlin, f 21;
#X floatatom 254 91 5 0 0 0 - - -, f 5;
#X floatatom 323 93 5 0 0 0 - - -, f 5;
#X connect 0 0 1 0;
#X connect 0 1 2 0;
#X connect 3 0 4 0;
#X connect 3 1 5 0;
#X restore 90 510 pd monitor;
#X obj 391 234 REC 1;
#X connect 0 0 1 0;
#X connect 1 0 2 0;
#X connect 1 0 8 0;
#X connect 1 0 30 1;
#X connect 3 0 6 0;
#X connect 6 0 7 0;
#X connect 6 1 8 0;
#X connect 7 0 30 2;
#X connect 8 0 30 2;
#X connect 11 0 25 0;
#X connect 11 0 30 0;
#X connect 11 0 24 0;
#X connect 12 0 22 0;
#X connect 14 0 18 0;
#X connect 15 0 24 2;
#X connect 16 0 24 2;
#X connect 18 0 15 0;
#X connect 18 1 16 0;
#X connect 22 0 13 0;
#X connect 22 0 16 0;
#X connect 22 0 24 1;
#X connect 24 0 10 0;
#X connect 24 0 10 1;
#X connect 25 0 26 0;
#X connect 30 0 10 0;
#X connect 30 0 10 1;
