#N canvas 11 26 1905 1022 10;
#X obj 192 62 tgl 15 0 empty empty empty 17 7 0 10 #fcfcfc #000000
#000000 0 1;
#X obj 782 -47 samplerate~;
#X obj 782 -27 s sr;
#X obj 168 2 bng 15 250 50 0 empty empty empty 17 7 0 10 #fcfcfc #000000
#000000;
#X obj 944 489 phasor~;
#X obj 946 389 r sr;
#X obj 928 424 expr $f2/$f1;
#X obj 944 514 *~;
#X obj 1048 538 -~ 0.5;
#X obj 1048 562 *~ 0.5;
#X obj 923 550 spigot~;
#X obj 1020 632 tgl 15 0 empty empty empty 17 7 0 10 #fcfcfc #000000
#000000 0 1;
#X obj 1217 391 phasor~;
#X obj 1217 451 *~;
#X obj 1321 450 -~ 0.5;
#X obj 1321 474 *~ 0.5;
#X obj 1196 502 spigot~;
#X obj 1216 596 *~;
#X obj 943 644 *~;
#X obj 1048 585 cos~;
#X obj 1321 497 cos~;
#X msg 1252 368 0.5;
#X msg 1125 366 0;
#X msg 689 -39 \; \$0-TAB const 0;
#X obj 134 393 tabwrite~ \$0-TAB;
#X obj 944 579 tabread4~ \$0-TAB;
#X obj 1217 531 tabread4~ \$0-TAB;
#X msg 62 308 start 500;
#X msg 631 -35 500;
#X obj 24 47 delay 500;
#X msg 24 72 0;
#X text 487 -37 recording duration (ms);
#X msg 646 55 \; \$0-TAB resize \$1;
#X obj 646 34 expr $f1/1000*$f2;
#X obj 720 7 r sr;
#X obj 285 -123 loadbang;
#X obj 929 311 expr $f1/1000*$f2;
#X obj 1014 277 r sr;
#X obj 1028 800 outlet~;
#X obj 564 1 s \$0-RecLen_ms;
#X obj 5 -32 r \$0-RecLen_ms;
#X obj 62 283 r \$0-StartRec;
#X obj 396 176 s \$0-UPDATE;
#X obj 689 -63 r \$0-UPDATE;
#X obj 789 -67 r \$0-UPDATE;
#X obj 929 286 r \$0-RecLen_ms;
#X obj 1044 651 r \$0-Playback;
#X obj 1234 483 r \$0-Playback;
#X obj 1149 297 r \$0-Playback;
#X obj 192 190 s \$0-Playback;
#X obj 339 454 table \$0-TAB;
#X text 185 1 update parameters;
#X floatatom 167 25 5 0 0 0 - - -, f 5;
#X msg 632 -101 set \$1;
#X text 201 25 recording duration (ms);
#X msg 290 -62 500;
#X text 209 61 recording...;
#X obj 192 79 tgl 15 0 empty empty empty 17 7 0 10 #fcfcfc #000000
#000000 0 1;
#X text 209 78 playback;
#X obj 9 167 inlet~;
#X obj 128 147 s \$0-StartRec;
#X obj 172 -104 inlet playback;
#X obj 128 124 sel 1;
#X obj 632 -76 t b a;
#X floatatom 558 -116 5 0 0 0 - - -, f 5;
#X obj 1296 -59 f \$1;
#X obj 1296 -89 loadbang;
#X obj 1066 -6 r midi-command;
#X obj 1092 49 unpack s f;
#X msg 1296 21 symbol Chan1-Playback;
#X obj 1296 -34 t b f;
#X obj 1164 100 select symbol;
#X msg 1323 -10 set symbol Chan\$1-Playback;
#X msg 1241 -83 1;
#X obj 1164 148 s \$0-StartRec;
#X connect 0 0 62 0;
#X connect 1 0 2 0;
#X connect 3 0 42 0;
#X connect 4 0 7 0;
#X connect 4 0 8 0;
#X connect 5 0 6 1;
#X connect 6 0 4 0;
#X connect 6 0 12 0;
#X connect 7 0 10 0;
#X connect 8 0 9 0;
#X connect 9 0 19 0;
#X connect 10 1 25 0;
#X connect 11 0 10 1;
#X connect 12 0 13 0;
#X connect 12 0 14 0;
#X connect 13 0 16 0;
#X connect 14 0 15 0;
#X connect 15 0 20 0;
#X connect 16 1 26 0;
#X connect 17 0 38 0;
#X connect 18 0 38 0;
#X connect 19 0 18 1;
#X connect 20 0 17 1;
#X connect 21 0 12 1;
#X connect 22 0 4 1;
#X connect 25 0 18 0;
#X connect 26 0 17 0;
#X connect 27 0 24 0;
#X connect 28 0 33 0;
#X connect 28 0 39 0;
#X connect 29 0 30 0;
#X connect 30 0 0 0;
#X connect 33 0 32 0;
#X connect 34 0 33 1;
#X connect 35 0 42 0;
#X connect 35 0 55 0;
#X connect 36 0 6 0;
#X connect 36 0 7 1;
#X connect 36 0 13 1;
#X connect 37 0 36 1;
#X connect 40 0 29 1;
#X connect 41 0 27 0;
#X connect 43 0 23 0;
#X connect 43 0 28 0;
#X connect 44 0 1 0;
#X connect 45 0 36 0;
#X connect 46 0 11 0;
#X connect 47 0 16 1;
#X connect 48 0 22 0;
#X connect 48 0 21 0;
#X connect 52 0 53 0;
#X connect 53 0 63 0;
#X connect 55 0 52 0;
#X connect 57 0 49 0;
#X connect 59 0 24 0;
#X connect 61 0 57 0;
#X connect 62 0 60 0;
#X connect 62 0 29 0;
#X connect 63 0 28 0;
#X connect 63 1 28 0;
#X connect 64 0 53 0;
#X connect 65 0 70 0;
#X connect 66 0 65 0;
#X connect 67 0 68 0;
#X connect 68 0 71 0;
#X connect 69 0 71 1;
#X connect 70 0 69 0;
#X connect 70 1 72 0;
#X connect 71 0 74 0;
#X connect 71 0 0 0;
#X connect 72 0 69 0;
#X connect 73 0 65 0;
#X coords 0 -1 1 1 244 123 1 100 -23;
