#N canvas 3 34 1905 1022 10;
#X obj 773 127 adc~ 1;
#X obj 773 366 tabwrite~ TAB;
#N canvas 0 50 450 300 (subpatch) 0;
#X array TAB 49152 float 2 black black;
#X coords 0 1 49152 -1 200 140 1;
#X restore 307 172 graph;
#X obj 468 653 key;
#X obj 468 678 sel 32;
#X obj 468 703 s StartRec;
#X obj 545 677 sel 32;
#X obj 545 702 s StopRec;
#X obj 545 652 keyup;
#X obj 32 16 r StartRec;
#X obj 32 41 bng 15 250 50 0 empty empty empty 17 7 0 10 -262144 -1
-1;
#X obj 109 15 r StopRec;
#X obj 109 40 bng 15 250 50 0 empty empty empty 17 7 0 10 -262144 -1
-1;
#X obj 29 73 tgl 15 0 empty empty empty 17 7 0 10 -262144 -1 -1 0 1
;
#X text 45 73 rec;
#X obj 651 159 r StartRec;
#X obj 722 160 r StopRec;
#X msg 722 185 stop;
#X msg 651 184 bang;
#X msg 137 692 \; TAB const 0;
#X msg 78 359 2;
#X obj 81 326 loadbang;
#X floatatom 78 409 7 0 0 0 - - -, f 7;
#X msg 78 433 \; TAB resize \$1;
#X obj 79 123 timer;
#X floatatom 44 146 5 0 0 0 - - -, f 5;
#X obj 104 85 r StartRec;
#X obj 181 84 r StopRec;
#X obj 79 172 * 44100;
#X floatatom 50 205 11 0 0 0 - - -, f 11;
#X obj 79 148 / 1000;
#X floatatom 776 492 5 0 0 0 - - -, f 5;
#X obj 846 547 shell;
#X msg 847 518 python ~/sakina/nextpow2.py \$1;
#X floatatom 809 546 5 0 0 0 - - -, f 5;
#X obj 132 205 s RecDur;
#X obj 823 464 r RecDur;
#X msg 922 836 \; TAB resize \$1;
#X obj 846 572 expr pow(2 \, $f1)+3;
#X obj 1258 193 phasor~;
#X obj 1259 240 *~;
#X obj 846 597 s NewTABsize;
#X obj 1391 87 r NewTABsize;
#X obj 1263 536 dac~;
#X floatatom 1249 132 5 0 0 0 - - -, f 5;
#X obj 1274 353 env~;
#X floatatom 1274 378 5 0 0 0 - - -, f 5;
#X obj 1257 281 spigot~;
#X obj 1296 255 tgl 15 0 empty empty empty 17 7 0 10 -262144 -1 -1
1 1;
#X obj 491 823 key;
#X text 493 865 o;
#X text 547 864 p;
#X obj 491 912 s Playback;
#X obj 491 848 sel 111 112, f 24;
#X msg 491 887 1;
#X msg 561 888 0;
#X obj 1320 254 r Playback;
#X obj 421 712 bng 15 250 50 0 empty empty empty 17 7 0 10 -262144
-1 -1;
#X obj 522 739 bng 15 250 50 0 empty empty empty 17 7 0 10 -262144
-1 -1;
#X obj 1258 318 tabread~ TAB;
#X obj 1448 238 *~;
#X obj 1463 351 env~;
#X floatatom 1463 376 5 0 0 0 - - -, f 5;
#X obj 1446 279 spigot~;
#X obj 1485 253 tgl 15 0 empty empty empty 17 7 0 10 -262144 -1 -1
1 1;
#X obj 1509 252 r Playback;
#X obj 1447 316 tabread~ TAB;
#X obj 1432 187 phasor~;
#X obj 1278 75 bng 15 250 50 0 empty empty empty 17 7 0 10 -262144
-1 -1;
#N canvas 0 50 450 300 (subpatch) 0;
#X array window 49152 float 2 black black;
#X coords 0 1 49152 -1 200 140 1;
#X restore 365 406 graph;
#X obj 1099 200 phasor~;
#X obj 1100 247 *~;
#X obj 1098 288 spigot~;
#X obj 1137 262 tgl 15 0 empty empty empty 17 7 0 10 -262144 -1 -1
1 1;
#X obj 1161 261 r Playback;
#X obj 1099 325 tabread~ window;
#X obj 851 105 samplerate~;
#X floatatom 851 130 5 0 0 0 - - -, f 5;
#X obj 854 67 loadbang;
#X obj 924 63 bng 15 250 50 0 empty empty empty 17 7 0 10 -262144 -1
-1;
#X obj 876 149 s sr;
#X obj 135 136 r sr;
#X obj 78 384 expr $f1*$f2;
#X obj 153 344 r sr;
#X obj 1336 47 r sr;
#X obj 1308 123 expr $f2/$f1;
#X obj 1088 566 r NewTABsize;
#X obj 1099 622 hann;
#X floatatom 1111 590 11 0 0 0 - - -, f 11;
#X obj 1123 373 *~;
#X obj 1082 369 env~;
#X floatatom 1082 394 5 0 0 0 - - -, f 5;
#X text 840 489 were connected;
#X obj 925 796 r NewTABsize;
#X obj 1380 387 *~;
#X msg 1470 141 0.5;
#X connect 0 0 1 0;
#X connect 3 0 4 0;
#X connect 4 0 5 0;
#X connect 4 0 55 0;
#X connect 4 0 57 0;
#X connect 6 0 7 0;
#X connect 6 0 58 0;
#X connect 8 0 6 0;
#X connect 9 0 10 0;
#X connect 10 0 13 0;
#X connect 11 0 12 0;
#X connect 12 0 13 0;
#X connect 15 0 18 0;
#X connect 16 0 17 0;
#X connect 17 0 1 0;
#X connect 18 0 1 0;
#X connect 20 0 82 0;
#X connect 21 0 20 0;
#X connect 22 0 23 0;
#X connect 24 0 25 0;
#X connect 24 0 30 0;
#X connect 26 0 24 0;
#X connect 27 0 24 1;
#X connect 28 0 29 0;
#X connect 28 0 35 0;
#X connect 30 0 28 0;
#X connect 32 0 34 0;
#X connect 32 0 38 0;
#X connect 33 0 32 0;
#X connect 36 0 31 0;
#X connect 36 0 41 0;
#X connect 38 0 41 0;
#X connect 39 0 40 0;
#X connect 40 0 47 0;
#X connect 42 0 40 1;
#X connect 42 0 85 0;
#X connect 42 0 71 1;
#X connect 42 0 60 1;
#X connect 44 0 39 0;
#X connect 45 0 46 0;
#X connect 47 1 59 0;
#X connect 48 0 47 1;
#X connect 49 0 53 0;
#X connect 53 0 54 0;
#X connect 53 1 55 0;
#X connect 54 0 52 0;
#X connect 55 0 52 0;
#X connect 56 0 48 0;
#X connect 59 0 45 0;
#X connect 59 0 89 1;
#X connect 60 0 63 0;
#X connect 61 0 62 0;
#X connect 63 1 66 0;
#X connect 64 0 63 1;
#X connect 65 0 64 0;
#X connect 66 0 61 0;
#X connect 66 0 94 1;
#X connect 67 0 60 0;
#X connect 68 0 85 0;
#X connect 70 0 71 0;
#X connect 71 0 72 0;
#X connect 72 1 75 0;
#X connect 73 0 72 1;
#X connect 74 0 73 0;
#X connect 75 0 89 0;
#X connect 75 0 90 0;
#X connect 75 0 94 0;
#X connect 76 0 77 0;
#X connect 76 0 80 0;
#X connect 78 0 76 0;
#X connect 79 0 76 0;
#X connect 81 0 28 1;
#X connect 82 0 22 0;
#X connect 83 0 82 1;
#X connect 84 0 85 1;
#X connect 85 0 39 0;
#X connect 85 0 67 0;
#X connect 85 0 70 0;
#X connect 86 0 87 0;
#X connect 86 0 88 0;
#X connect 89 0 43 0;
#X connect 90 0 91 0;
#X connect 93 0 37 0;
#X connect 95 0 67 1;
