#N canvas 5 34 1905 1022 10;
#X obj 773 127 adc~ 1;
#N canvas 0 50 450 300 (subpatch) 0;
#X array \$0-TAB 121023 float 2 black black;
#X coords 0 1 121023 -1 200 140 1;
#X restore 307 172 graph;
#X obj 468 653 key;
#X obj 468 678 sel 32;
#X obj 468 703 s StartRec;
#X obj 545 677 sel 32;
#X obj 545 702 s StopRec;
#X obj 545 652 keyup;
#X obj 32 21 r StartRec;
#X obj 101 21 r StopRec;
#X obj 32 70 tgl 15 0 empty empty empty 17 7 0 10 -262144 -1 -1 0 1
;
#X text 48 70 rec;
#X obj 582 191 r StartRec;
#X obj 722 160 r StopRec;
#X msg 749 214 stop;
#X obj 136 562 timer;
#X obj 136 523 r StartRec;
#X obj 163 542 r StopRec;
#X obj 136 651 * 44100;
#X obj 136 607 / 1000;
#X obj 468 727 key;
#X text 470 769 o;
#X text 524 768 p;
#X obj 468 816 s Playback;
#X obj 468 752 sel 111 112, f 24;
#X msg 468 791 1;
#X msg 538 792 0;
#X obj 782 -47 samplerate~;
#X obj 782 -87 loadbang;
#X obj 782 -27 s sr;
#X obj 175 629 r sr;
#X obj 136 684 s RecLen;
#X text 142 583 ms;
#X text 140 629 s;
#X text 138 667 samples;
#X text 32 0 VISU;
#X obj 29 149 r RecLen;
#X floatatom 29 169 8 0 0 0 - - -, f 8;
#X text 84 168 length last rec (samples);
#X obj 29 207 / 44100;
#X obj 253 -123 bng 15 250 50 0 empty empty empty 17 7 0 10 -262144
-1 -1;
#X obj 253 -100 s UPDATE;
#X obj 789 -67 r UPDATE;
#X obj 689 -63 r UPDATE;
#X floatatom 29 232 8 0 0 0 - - -, f 8;
#X obj 49 187 r sr;
#X text 85 232 length last rec (s);
#X obj 823 464 r RecLen;
#X text 478 630 CONTROL;
#X obj 944 489 phasor~;
#X obj 1032 404 r RecLen;
#X obj 946 389 r sr;
#X obj 928 424 expr $f2/$f1;
#X obj 929 286 r RecLen;
#X obj 944 514 *~;
#X obj 929 730 dac~ 1 2;
#X obj 1048 538 -~ 0.5;
#X obj 1048 562 *~ 0.5;
#X obj 923 550 spigot~;
#X obj 1020 632 tgl 15 0 empty empty empty 17 7 0 10 -262144 -1 -1
1 1;
#X obj 1044 651 r Playback;
#X obj 1217 391 phasor~;
#X obj 1217 466 *~;
#X obj 1321 450 -~ 0.5;
#X obj 1321 474 *~ 0.5;
#X obj 1196 502 spigot~;
#X obj 1293 584 tgl 15 0 empty empty empty 17 7 0 10 -262144 -1 -1
1 1;
#X obj 1317 603 r Playback;
#X obj 1216 596 *~;
#X obj 943 644 *~;
#X obj 1048 585 cos~;
#X obj 1321 497 cos~;
#X msg 1252 368 0.5;
#X obj 1125 343 bng 15 250 50 0 empty empty empty 17 7 0 10 -262144
-1 -1;
#X msg 1125 366 0;
#X msg 531 111 \; \$0-TAB resize 441000;
#X msg 689 -39 \; \$0-TAB const 0;
#X msg 560 385 \; \$0-TAB const 0;
#X obj 773 366 tabwrite~ \$0-TAB;
#X obj 944 579 tabread4~ \$0-TAB;
#X obj 1217 531 tabread4~ \$0-TAB;
#X obj 787 229 spigot~;
#X obj 582 213 t b b b;
#X msg 646 240 1;
#X obj 722 185 t b b;
#X msg 719 220 0;
#X msg 823 516 \; \$0-TAB resize \$1;
#X obj 823 489 pipe 1;
#X connect 0 0 81 0;
#X connect 2 0 3 0;
#X connect 3 0 4 0;
#X connect 3 0 26 0;
#X connect 5 0 6 0;
#X connect 7 0 5 0;
#X connect 8 0 10 0;
#X connect 9 0 10 0;
#X connect 12 0 82 0;
#X connect 13 0 84 0;
#X connect 14 0 78 0;
#X connect 15 0 19 0;
#X connect 16 0 15 0;
#X connect 17 0 15 1;
#X connect 18 0 31 0;
#X connect 19 0 18 0;
#X connect 20 0 24 0;
#X connect 24 0 25 0;
#X connect 24 1 26 0;
#X connect 25 0 23 0;
#X connect 26 0 23 0;
#X connect 27 0 29 0;
#X connect 28 0 27 0;
#X connect 30 0 18 1;
#X connect 36 0 37 0;
#X connect 36 0 39 0;
#X connect 39 0 44 0;
#X connect 40 0 41 0;
#X connect 42 0 27 0;
#X connect 43 0 76 0;
#X connect 45 0 39 1;
#X connect 47 0 87 0;
#X connect 49 0 54 0;
#X connect 49 0 56 0;
#X connect 50 0 54 1;
#X connect 50 0 62 1;
#X connect 51 0 52 1;
#X connect 52 0 49 0;
#X connect 52 0 61 0;
#X connect 53 0 52 0;
#X connect 54 0 58 0;
#X connect 56 0 57 0;
#X connect 57 0 70 0;
#X connect 58 1 79 0;
#X connect 59 0 58 1;
#X connect 60 0 59 0;
#X connect 61 0 62 0;
#X connect 61 0 63 0;
#X connect 62 0 65 0;
#X connect 63 0 64 0;
#X connect 64 0 71 0;
#X connect 65 1 80 0;
#X connect 66 0 65 1;
#X connect 67 0 66 0;
#X connect 68 0 55 0;
#X connect 68 0 55 1;
#X connect 69 0 55 0;
#X connect 69 0 55 1;
#X connect 70 0 69 1;
#X connect 71 0 68 1;
#X connect 72 0 61 1;
#X connect 73 0 74 0;
#X connect 73 0 72 0;
#X connect 74 0 49 1;
#X connect 79 0 69 0;
#X connect 80 0 68 0;
#X connect 81 1 78 0;
#X connect 82 0 78 0;
#X connect 82 1 83 0;
#X connect 82 2 77 0;
#X connect 83 0 81 1;
#X connect 84 0 85 0;
#X connect 84 1 14 0;
#X connect 85 0 81 1;
#X connect 87 0 86 0;
