#N canvas 5 34 1905 1022 10;
#X obj 134 154 adc~ 1;
#N canvas 0 50 450 300 (subpatch) 0;
#X array \$0-TAB 22050 float 2 black black;
#X coords 0 1 22050 -1 200 140 1;
#X restore 307 172 graph;
#X obj 468 653 key;
#X obj 468 678 sel 32;
#X obj 468 703 s StartRec;
#X obj 32 15 r StartRec;
#X obj 32 70 tgl 15 0 empty empty empty 17 7 0 10 -262144 -1 -1 0 1
;
#X text 48 70 rec;
#X obj 468 727 key;
#X text 470 769 o;
#X text 524 768 p;
#X obj 468 816 s Playback;
#X obj 468 752 sel 111 112, f 24;
#X msg 468 791 1;
#X msg 538 792 0;
#X obj 782 -47 samplerate~;
#X obj 782 -27 s sr;
#X text 32 -6 VISU;
#X obj 253 -123 bng 15 250 50 0 empty empty empty 17 7 0 10 -262144
-1 -1;
#X obj 253 -100 s UPDATE;
#X obj 789 -67 r UPDATE;
#X obj 689 -63 r UPDATE;
#X text 478 630 CONTROL;
#X obj 944 489 phasor~;
#X obj 946 389 r sr;
#X obj 928 424 expr $f2/$f1;
#X obj 944 514 *~;
#X obj 929 730 dac~ 1 2;
#X obj 1048 538 -~ 0.5;
#X obj 1048 562 *~ 0.5;
#X obj 923 550 spigot~;
#X obj 1020 632 tgl 15 0 empty empty empty 17 7 0 10 -262144 -1 -1
1 1;
#X obj 1044 651 r Playback;
#X obj 1217 391 phasor~;
#X obj 1217 466 *~;
#X obj 1321 450 -~ 0.5;
#X obj 1321 474 *~ 0.5;
#X obj 1196 502 spigot~;
#X obj 1293 584 tgl 15 0 empty empty empty 17 7 0 10 -262144 -1 -1
1 1;
#X obj 1317 603 r Playback;
#X obj 1216 596 *~;
#X obj 943 644 *~;
#X obj 1048 585 cos~;
#X obj 1321 497 cos~;
#X msg 1252 368 0.5;
#X obj 1125 343 bng 15 250 50 0 empty empty empty 17 7 0 10 -262144
-1 -1;
#X msg 1125 366 0;
#X msg 689 -39 \; \$0-TAB const 0;
#X obj 134 393 tabwrite~ \$0-TAB;
#X obj 944 579 tabread4~ \$0-TAB;
#X obj 1217 531 tabread4~ \$0-TAB;
#X obj 62 283 r StartRec;
#X msg 62 308 start 500;
#X msg 631 -35 500;
#X msg 32 46 1;
#X obj 71 46 delay 500;
#X msg 71 71 0;
#X obj 106 75 bng 15 250 50 0 empty empty empty 17 7 0 10 -262144 -1
-1;
#X obj 4 49 bng 15 250 50 0 empty empty empty 17 7 0 10 -262144 -1
-1;
#X obj 564 1 s RecLen_ms;
#X obj 112 -20 r RecLen_ms;
#X text 487 -37 recording duration (ms);
#X msg 646 55 \; \$0-TAB resize \$1;
#X obj 646 34 expr $f1/1000*$f2;
#X obj 720 7 r sr;
#X obj 285 -123 loadbang;
#X obj 929 286 r RecLen_ms;
#X obj 929 311 expr $f1/1000*$f2;
#X obj 1014 277 r sr;
#X obj 688 273 env~;
#X floatatom 688 298 5 0 0 0 - - -, f 5;
#X connect 0 0 48 0;
#X connect 2 0 3 0;
#X connect 3 0 4 0;
#X connect 3 0 14 0;
#X connect 5 0 54 0;
#X connect 5 0 55 0;
#X connect 5 0 58 0;
#X connect 8 0 12 0;
#X connect 12 0 13 0;
#X connect 12 1 14 0;
#X connect 13 0 11 0;
#X connect 14 0 11 0;
#X connect 15 0 16 0;
#X connect 18 0 19 0;
#X connect 20 0 15 0;
#X connect 21 0 47 0;
#X connect 21 0 53 0;
#X connect 23 0 26 0;
#X connect 23 0 28 0;
#X connect 24 0 25 1;
#X connect 25 0 23 0;
#X connect 25 0 33 0;
#X connect 26 0 30 0;
#X connect 28 0 29 0;
#X connect 29 0 42 0;
#X connect 30 1 49 0;
#X connect 31 0 30 1;
#X connect 32 0 31 0;
#X connect 33 0 34 0;
#X connect 33 0 35 0;
#X connect 34 0 37 0;
#X connect 35 0 36 0;
#X connect 36 0 43 0;
#X connect 37 1 50 0;
#X connect 38 0 37 1;
#X connect 39 0 38 0;
#X connect 40 0 27 0;
#X connect 40 0 27 1;
#X connect 41 0 27 0;
#X connect 41 0 27 1;
#X connect 42 0 41 1;
#X connect 43 0 40 1;
#X connect 44 0 33 1;
#X connect 45 0 46 0;
#X connect 45 0 44 0;
#X connect 46 0 23 1;
#X connect 49 0 41 0;
#X connect 50 0 40 0;
#X connect 51 0 52 0;
#X connect 52 0 48 0;
#X connect 53 0 59 0;
#X connect 53 0 63 0;
#X connect 54 0 6 0;
#X connect 55 0 56 0;
#X connect 55 0 57 0;
#X connect 56 0 6 0;
#X connect 60 0 55 1;
#X connect 63 0 62 0;
#X connect 64 0 63 1;
#X connect 65 0 19 0;
#X connect 66 0 67 0;
#X connect 67 0 25 0;
#X connect 67 0 26 1;
#X connect 67 0 34 1;
#X connect 68 0 67 1;
#X connect 69 0 70 0;
