#N canvas 3 34 1905 1022 10;
#X obj 773 127 adc~ 1;
#X obj 773 366 tabwrite~ TAB;
#N canvas 0 50 450 300 (subpatch) 0;
#X array TAB 33792 float 2 black black;
#X coords 0 1 33792 -1 200 140 1;
#X restore 307 172 graph;
#X obj 468 653 key;
#X obj 468 678 sel 32;
#X obj 468 703 s StartRec;
#X obj 545 677 sel 32;
#X obj 545 702 s StopRec;
#X obj 545 652 keyup;
#X obj 32 16 r StartRec;
#X obj 32 41 bng 15 250 50 0 empty empty empty 17 7 0 10 -262144 -1
-1;
#X obj 109 15 r StopRec;
#X obj 109 40 bng 15 250 50 0 empty empty empty 17 7 0 10 -262144 -1
-1;
#X obj 29 73 tgl 15 0 empty empty empty 17 7 0 10 -262144 -1 -1 1 1
;
#X text 45 73 rec;
#X obj 651 159 r StartRec;
#X obj 722 160 r StopRec;
#X msg 722 185 stop;
#X msg 651 184 bang;
#X msg 137 692 \; TAB const 0;
#X msg 78 359 2;
#X obj 81 326 loadbang;
#X floatatom 78 409 7 0 0 0 - - -, f 7;
#X msg 78 433 \; TAB resize \$1;
#X obj 79 123 timer;
#X floatatom 44 146 5 0 0 0 - - -, f 5;
#X obj 104 85 r StartRec;
#X obj 181 84 r StopRec;
#X obj 79 172 * 44100;
#X floatatom 50 205 11 0 0 0 - - -, f 11;
#X obj 79 148 / 1000;
#X floatatom 776 492 5 0 0 0 - - -, f 5;
#X obj 846 547 shell;
#X msg 847 518 python ~/sakina/nextpow2.py \$1;
#X floatatom 809 546 5 0 0 0 - - -, f 5;
#X obj 132 205 s RecDur;
#X obj 823 464 r RecDur;
#X msg 922 836 \; TAB resize \$1;
#X obj 846 572 expr pow(2 \, $f1)+3;
#X obj 846 597 s NewTABsize;
#X obj 1506 932 dac~;
#X obj 491 823 key;
#X text 493 865 o;
#X text 547 864 p;
#X obj 491 912 s Playback;
#X obj 491 848 sel 111 112, f 24;
#X msg 491 887 1;
#X msg 561 888 0;
#X obj 421 712 bng 15 250 50 0 empty empty empty 17 7 0 10 -262144
-1 -1;
#X obj 522 739 bng 15 250 50 0 empty empty empty 17 7 0 10 -262144
-1 -1;
#X obj 851 105 samplerate~;
#X floatatom 851 130 5 0 0 0 - - -, f 5;
#X obj 854 67 loadbang;
#X obj 924 63 bng 15 250 50 0 empty empty empty 17 7 0 10 -262144 -1
-1;
#X obj 876 149 s sr;
#X obj 135 136 r sr;
#X obj 78 384 expr $f1*$f2;
#X obj 153 344 r sr;
#X text 840 489 were connected;
#X obj 925 796 r NewTABsize;
#X obj 1468 894 spigot~;
#X obj 1507 838 tgl 15 0 empty empty empty 17 7 0 10 -262144 -1 -1
1 1;
#X obj 1531 857 r Playback;
#X obj 1298 -164 r NewTABsize;
#X obj 1315 -61 r sr;
#X floatatom 1238 -120 5 0 0 0 - - -, f 5;
#X obj 1656 624 +~ 1;
#X obj 1656 702 *~;
#X obj 1656 653 +~;
#X obj 1702 652 samphold~;
#X obj 1656 552 samphold~;
#X obj 1656 599 *~;
#X obj 1791 613 r~ phase;
#X obj 1924 486 s~ phase;
#X obj 1734 552 r~ phase;
#X obj 1671 576 r~ phase;
#X obj 1722 627 r~ phase;
#X obj 1791 637 -~ 0.5;
#X obj 1791 661 *~ 0.5;
#X obj 1791 684 cos~;
#X obj 1931 437 phasor~;
#X obj 2018 466 +~ 0.5;
#X obj 2018 488 wrap~;
#X obj 2018 510 s~ phase2;
#X obj 1656 530 r chunk-size-samples;
#X obj 1880 635 +~ 1;
#X obj 1880 713 *~;
#X obj 1880 664 +~;
#X obj 1925 663 samphold~;
#X obj 1880 563 samphold~;
#X obj 1880 610 *~;
#X obj 2015 648 -~ 0.5;
#X obj 2015 672 *~ 0.5;
#X obj 2015 695 cos~;
#X obj 1880 541 r chunk-size-samples;
#X obj 1959 564 r~ phase2;
#X obj 1895 587 r~ phase2;
#X obj 2015 624 r~ phase2;
#X obj 1935 638 r~ phase2;
#X text 1697 510 copy 1;
#X text 1923 521 copy 2;
#X obj 1706 774 +~;
#X obj 1656 678 tabread4~ TAB;
#X obj 1880 689 tabread4~ TAB;
#X msg 1807 521 0;
#X floatatom 1891 390 5 0 0 0 - - -, f 5;
#X obj 1545 423 r NewTABsize;
#X obj 1297 -26 expr $f2/$f1;
#X connect 0 0 1 0;
#X connect 3 0 4 0;
#X connect 4 0 5 0;
#X connect 4 0 47 0;
#X connect 4 0 48 0;
#X connect 6 0 7 0;
#X connect 6 0 49 0;
#X connect 8 0 6 0;
#X connect 9 0 10 0;
#X connect 10 0 13 0;
#X connect 11 0 12 0;
#X connect 12 0 13 0;
#X connect 15 0 18 0;
#X connect 16 0 17 0;
#X connect 17 0 1 0;
#X connect 18 0 1 0;
#X connect 20 0 56 0;
#X connect 21 0 20 0;
#X connect 22 0 23 0;
#X connect 24 0 25 0;
#X connect 24 0 30 0;
#X connect 26 0 24 0;
#X connect 27 0 24 1;
#X connect 28 0 29 0;
#X connect 28 0 35 0;
#X connect 30 0 28 0;
#X connect 32 0 34 0;
#X connect 32 0 38 0;
#X connect 33 0 32 0;
#X connect 36 0 31 0;
#X connect 36 0 39 0;
#X connect 38 0 39 0;
#X connect 41 0 45 0;
#X connect 45 0 46 0;
#X connect 45 1 47 0;
#X connect 46 0 44 0;
#X connect 47 0 44 0;
#X connect 50 0 51 0;
#X connect 50 0 54 0;
#X connect 52 0 50 0;
#X connect 53 0 50 0;
#X connect 55 0 28 1;
#X connect 56 0 22 0;
#X connect 57 0 56 1;
#X connect 59 0 37 0;
#X connect 60 1 40 0;
#X connect 61 0 60 1;
#X connect 62 0 61 0;
#X connect 63 0 107 0;
#X connect 64 0 107 1;
#X connect 65 0 107 0;
#X connect 66 0 68 0;
#X connect 67 0 101 0;
#X connect 68 0 102 0;
#X connect 69 0 68 1;
#X connect 70 0 71 0;
#X connect 71 0 66 0;
#X connect 72 0 77 0;
#X connect 74 0 70 1;
#X connect 75 0 71 1;
#X connect 76 0 69 1;
#X connect 77 0 78 0;
#X connect 78 0 79 0;
#X connect 79 0 67 1;
#X connect 80 0 81 0;
#X connect 80 0 73 0;
#X connect 81 0 82 0;
#X connect 82 0 83 0;
#X connect 84 0 70 0;
#X connect 85 0 87 0;
#X connect 86 0 101 1;
#X connect 87 0 103 0;
#X connect 88 0 87 1;
#X connect 89 0 90 0;
#X connect 90 0 85 0;
#X connect 91 0 92 0;
#X connect 92 0 93 0;
#X connect 93 0 86 1;
#X connect 94 0 89 0;
#X connect 95 0 89 1;
#X connect 96 0 90 1;
#X connect 97 0 91 0;
#X connect 98 0 88 1;
#X connect 101 0 60 0;
#X connect 102 0 67 0;
#X connect 103 0 86 0;
#X connect 104 0 69 0;
#X connect 104 0 88 0;
#X connect 105 0 80 0;
#X connect 106 0 70 0;
#X connect 106 0 89 0;
#X connect 107 0 105 0;
